<svg width="305" height="305" viewBox="0 0 305 305" fill="none" xmlns="http://www.w3.org/2000/svg">
<rect width="305" height="305" rx="63" fill="white"/>
<path d="M246.684 79C255.017 79 262.439 80.8717 268.949 84.6152C274.071 87.5602 278.266 91.4016 281.534 96.1394L256.958 96.1398C253.972 94.9997 250.547 94.4297 246.684 94.4297C239.457 94.4297 233.858 96.4479 229.887 100.484C225.915 104.521 223.93 110.185 223.93 117.477C223.93 123.466 226.078 128.479 230.375 132.516C234.672 136.552 241.312 140.165 250.297 143.355C264.294 147.978 274.304 153.674 280.326 160.445C286.348 167.216 289.359 176.07 289.359 187.008C289.359 198.531 285.616 207.76 278.129 214.693C270.642 221.627 260.453 225.094 247.562 225.094C239.294 225.094 231.661 223.287 224.662 219.674C217.663 216.061 212.162 210.982 208.158 204.439C204.154 197.896 202.152 190.393 202.152 181.93H220.121C220.121 190.719 222.579 197.555 227.494 202.438C232.41 207.32 239.099 209.762 247.562 209.762C255.44 209.762 261.365 207.744 265.336 203.707C269.307 199.671 271.293 194.169 271.293 187.203C271.293 180.107 269.372 174.671 265.531 170.895C261.774 167.201 255.057 163.6 245.38 160.093L244.73 159.859C234.704 156.279 227.038 152.519 221.732 148.58C216.426 144.641 212.455 140.149 209.818 135.104C207.182 130.058 205.863 124.28 205.863 117.77C205.863 106.506 209.623 97.2292 217.143 89.9375C224.662 82.6458 234.509 79 246.684 79Z" fill="#006699"/>
<path d="M63.519 80.953V104.878L42.7109 104.879V141.305H87.3398V165.133H42.7109V223.141H14V80.9531L63.519 80.953Z" fill="#314E6B"/>
<path d="M140.91 80.9531C157.512 80.9531 170.402 86.1451 179.582 96.5293C188.762 106.913 193.352 121.513 193.352 140.328V164.156C193.352 182.971 188.697 197.506 179.387 207.76C170.077 218.014 156.568 223.141 138.859 223.141H107.023V80.9531H140.91ZM140.91 96.3828H124.895V207.809H139.25C151.815 207.809 160.995 204.212 166.789 197.018C172.583 189.824 175.546 179.163 175.676 165.035V139.84C175.676 124.866 172.795 113.88 167.033 106.881C161.271 99.8821 152.564 96.3828 140.91 96.3828Z" fill="#006699"/>
<path d="M289.262 122.066H271.293C271.293 116.209 270.353 111.234 268.474 107.141L286.948 107.14C288.49 111.83 289.262 116.805 289.262 122.066Z" fill="#FF6633"/>
<path d="M92.7109 80.9531V104.879L74.519 104.878V80.953L92.7109 80.9531Z" fill="#006699"/>
</svg>
