<svg width="187" height="22" xmlns="http://www.w3.org/2000/svg"><g fill="#FFF" fill-rule="evenodd"><path d="M9.499 10.21h8.845V.959H3.734A3.734 3.734 0 0 0 0 4.698v12.94a3.734 3.734 0 0 0 3.734 3.715h14.61v-9.357H9.5v-1.785zM29.156 10.21H20.06V.959h5.345a3.734 3.734 0 0 1 3.733 3.74l.02 5.513zM29.156 17.639v-5.643H20.06v9.357h5.345a3.734 3.734 0 0 0 3.733-3.734"/><path d="M54.858 15.646a10.269 10.269 0 0 1-9.35 6.043c-5.83-.05-10.539-4.775-10.567-10.605C34.994 5.322 39.668.672 45.43.647c4.137-.04 7.9 2.388 9.57 6.173h-4.296a6.936 6.936 0 0 0-5.41-2.672c-3.28 0-6.587 2.95-6.587 6.994 0 3.799 3.145 7.047 6.723 7.047 2.705 0 4.18-1.585 5.08-2.543h4.348zM57.53 1.055h3.992c2.24 0 4.478 0 6.225 1.56a5.286 5.286 0 0 1 1.728 3.771 4.109 4.109 0 0 1-2.271 3.883c1.339.492 3.468 1.611 3.468 5.027a5.714 5.714 0 0 1-2.51 4.763c-1.534 1.061-3.883 1.197-5.223 1.197H57.53V1.055zm3.746 7.874h1.23c.873 0 3.235 0 3.235-2.187-.013-1.203-.776-2.213-2.912-2.213h-1.553v4.4zm0 8.852h1.883c.738 0 3.773 0 3.773-2.653 0-.822-.414-2.704-3.688-2.704h-1.942l-.026 5.357zM73.816 1.055h2.02v20.22h-2.02zM80.235 1.055h2.73l11.286 16.778h.058V1.055h2.019v20.22h-2.02L82.313 3.488h-.058v17.787h-2.019zM101.297 15.62c.11 2.543 1.721 4.18 4.212 4.18a4.012 4.012 0 0 0 4.07-4.012c0-3.119-3.144-3.882-4.529-4.322-1.831-.544-5.248-1.294-5.248-5.325 0-3.145 2.492-5.442 5.688-5.442a5.461 5.461 0 0 1 5.597 5.493h-2.019a3.65 3.65 0 0 0-3.578-3.662 3.533 3.533 0 0 0-3.662 3.526c0 2.46 2.154 3.035 4.807 3.799 4.918 1.294 4.944 5.176 4.944 5.823a5.972 5.972 0 0 1-6.089 5.927c-2.627 0-6.147-1.553-6.231-6.01l2.038.025zM114.633 1.055h2.019v20.22h-2.02zM141.628 11.99c-.466 6.011-5.713 9.641-10.683 9.641-6.043 0-10.85-4.892-10.85-10.463.109-5.875 4.949-10.556 10.824-10.47 5.352 0 8.768 3.696 9.564 5.74h-2.355a8.412 8.412 0 0 0-7.183-3.882 8.768 8.768 0 0 0-8.826 8.638 8.742 8.742 0 0 0 8.904 8.606c4.29 0 7.46-3.17 8.172-5.985h-11.284V11.99h13.717zM145.174 1.055h2.025v8.91h10.463v-8.91h2.026v20.22h-2.026v-9.48H147.2v9.48h-2.025zM166.844 2.886h-4.646V1.055h11.285v1.83h-4.6v18.39h-2.02zM176.57 15.62c.11 2.543 1.72 4.18 4.205 4.18a4.012 4.012 0 0 0 4.07-4.012c0-3.119-3.138-3.882-4.53-4.322-1.83-.544-5.247-1.294-5.247-5.325 0-3.145 2.485-5.442 5.681-5.442a5.468 5.468 0 0 1 5.604 5.493h-2.025a3.65 3.65 0 0 0-3.579-3.662 3.533 3.533 0 0 0-3.662 3.526c0 2.46 2.161 3.035 4.814 3.799 4.918 1.294 4.944 5.176 4.944 5.823a5.979 5.979 0 0 1-6.096 5.927c-2.62 0-6.147-1.553-6.23-6.01l2.05.025z" fill-rule="nonzero"/></g></svg>