<?xml version="1.0" encoding="UTF-8"?>
<svg width="18px" height="20px" viewBox="0 0 18 20" version="1.1" xmlns="http://www.w3.org/2000/svg" xmlns:xlink="http://www.w3.org/1999/xlink">
    <title>FTP / 01 Light / 01 Primary </title>
    <g id="Saved-Search" stroke="none" stroke-width="1" fill="none" fill-rule="evenodd" fill-opacity="0.87">
        <g id="SFTP---01" transform="translate(-188.000000, -419.000000)" fill="#404040">
            <g id="Shape" transform="translate(185.000000, 417.000000)">
                <path d="M16.0002136,2 L21,6.99978644 L21,20 C21,21.0531354 20.1829516,21.9180536 19.1491027,21.9945067 L19,22 L7,22 C5.94686456,22 5.08194636,21.1829516 5.00549334,20.1491027 L5,20 L5,19 L7,19 L7,20 L19,20 L19,8 L15,8 L15,4 L7,4 L7,8 L5,8 L5,4 C5,2.94686456 5.8170484,2.08194636 6.85089728,2.00549334 L7,2 L16.0002136,2 Z M3,11 L3,16 C3,17.105 4.03269231,18 5.30769231,18 L15.6923077,18 C16.9673077,18 18,17.105 18,16 L18,11 C18,9.895 16.9673077,9 15.6923077,9 L5.30769231,9 C4.03269231,9 3,9.895 3,11 Z M14.5,11 C15.328,11 16,11.672 16,12.5 C16,13.328 15.328,14 14.5,14 L14,14 L14,16 L13,16 L13,11 L14.5,11 Z M12,11 L12,12 L11,12 L11,16 L10,16 L10,12 L9,12 L9,11 L12,11 Z M8,11 L8,12 L6,12 L6,13 L7.6,13 L7.6,14 L6,14 L6,16 L5,16 L5,11 L8,11 Z M14.5,12 L14,12 L14,13 L14.5,13 C14.776,13 15,12.776 15,12.5 C15,12.224 14.776,12 14.5,12 Z"></path>
            </g>
        </g>
    </g>
</svg>