<?xml version="1.0" encoding="UTF-8"?>
<svg width="394px" height="276px" viewBox="0 0 394 276" version="1.1" xmlns="http://www.w3.org/2000/svg" xmlns:xlink="http://www.w3.org/1999/xlink">
    <!-- Generator: Sketch 59.1 (86144) - https://sketch.com -->
    <title>Artboard</title>
    <desc>Created with Sketch.</desc>
    <g id="Page-1" stroke="none" stroke-width="1" fill="none" fill-rule="evenodd">
        <g id="Artboard" fill-rule="nonzero">
            <g id="Group" transform="translate(59.000000, 65.000000)">
                <path d="M232.683594,0 C241.016969,0 248.43877,1.87172607 254.949219,5.61523438 C260.070868,8.56018297 264.265777,12.4015597 267.534018,17.1394403 L242.957914,17.1398485 C239.972248,15.9997384 236.547482,15.4296875 232.683594,15.4296875 C225.456995,15.4296875 219.858093,17.4478965 215.886719,21.484375 C211.915345,25.5208535 209.929688,31.1848594 209.929688,38.4765625 C209.929688,44.4661758 212.078104,49.4791465 216.375,53.515625 C220.671896,57.5521035 227.312455,61.1653486 236.296875,64.3554688 C250.294341,68.9778877 260.304006,74.6744453 266.326172,81.4453125 C272.348337,88.2161797 275.359375,97.0702578 275.359375,108.007812 C275.359375,119.531308 271.615923,128.759731 264.128906,135.693359 C256.64189,142.626988 246.453189,146.09375 233.5625,146.09375 C225.294229,146.09375 217.660842,144.287127 210.662109,140.673828 C203.663376,137.060529 198.162129,131.982455 194.158203,125.439453 C190.154277,118.896452 188.152344,111.393271 188.152344,102.929688 L206.121094,102.929688 C206.121094,111.718794 208.578751,118.554663 213.494141,123.4375 C218.40953,128.320337 225.098916,130.761719 233.5625,130.761719 C241.440144,130.761719 247.364563,128.74351 251.335938,124.707031 C255.307312,120.670553 257.292969,115.169306 257.292969,108.203125 C257.292969,101.106735 255.372415,95.6705918 251.53125,91.8945312 C247.773589,88.200559 241.056557,84.6000964 231.37996,81.0930404 L230.730469,80.859375 C220.704377,77.2786279 213.038438,73.5188999 207.732422,69.5800781 C202.426406,65.6412563 198.455091,61.1491138 195.818359,56.1035156 C193.181627,51.0579175 191.863281,45.2799805 191.863281,38.7695312 C191.863281,27.5064541 195.623009,18.2292031 203.142578,10.9375 C210.662147,3.64579687 220.509054,0 232.683594,0 Z" id="Path" fill="#006699"></path>
                <polygon id="Path" fill="#314E6B" points="49.519 1.953 49.519 25.878 28.7109375 25.8789062 28.7109375 62.3046875 73.3398438 62.3046875 73.3398438 86.1328125 28.7109375 86.1328125 28.7109375 144.140625 0 144.140625 0 1.953125"></polygon>
                <path d="M126.910156,1.953125 C143.511802,1.953125 156.402298,7.14513037 165.582031,17.5292969 C174.761765,27.9134634 179.351562,42.5129268 179.351562,61.328125 L179.351562,85.15625 C179.351562,103.971448 174.696661,118.505808 165.386719,128.759766 C156.076776,139.013723 142.567797,144.140625 124.859375,144.140625 L93.0234375,144.140625 L93.0234375,1.953125 L126.910156,1.953125 Z M126.910156,17.3828125 L110.894531,17.3828125 L110.894531,128.808594 L125.25,128.808594 C137.815167,128.808594 146.994763,125.211625 152.789062,118.017578 C158.583362,110.823532 161.545572,100.162831 161.675781,86.0351562 L161.675781,60.8398438 C161.675781,45.8658105 158.794951,34.8795923 153.033203,27.8808594 C147.271456,20.8821265 138.56386,17.3828125 126.910156,17.3828125 Z" id="Combined-Shape" fill="#006699"></path>
                <path d="M275.261719,43.0664062 L257.292969,43.0664062 C257.292969,37.2093665 256.353343,32.2341875 254.474074,28.1408089 L272.947987,28.1399666 C274.49048,32.8297927 275.261719,37.8052513 275.261719,43.0664062 Z" id="Path" fill="#FF6633"></path>
                <polygon id="Path" fill="#006699" points="78.7109375 1.953125 78.7109375 25.8789062 60.519 25.878 60.519 1.953"></polygon>
            </g>
        </g>
    </g>
</svg>