<?xml version="1.0" encoding="UTF-8"?>
<svg width="24px" height="24px" viewBox="0 0 24 24" version="1.1" xmlns="http://www.w3.org/2000/svg" xmlns:xlink="http://www.w3.org/1999/xlink">
    <title>icon/add_section</title>
    <g id="Icons" stroke="none" stroke-width="1" fill="none" fill-rule="evenodd">
        <g id="icon/add_section" fill="#404040">
            <path d="M20,19 L12,19 C12,19 12,17 12,17 L20,17 L20,6 L4,6 L4,12 C4,12 2,12 2,12 L2,6 C2,4.66666667 2.66666667,4 4,4 L20,4 C21.3333333,4 22,4.66666667 22,6 L22,17 C22,18.3333333 21.3333333,19 20,19 Z M3,17 L3,15 L6,15 L6,12 L8,12 L8,15 L11,15 L11,17 L8,17 L8,20 L6,20 L6,17 L3,17 Z" id="AddSection"></path>
        </g>
    </g>
</svg>