<?xml version="1.0" encoding="UTF-8"?>
<svg width="24px" height="24px" viewBox="0 0 24 24" version="1.1" xmlns="http://www.w3.org/2000/svg" xmlns:xlink="http://www.w3.org/1999/xlink">
    <title>icon/archive</title>
    <g id="Icons" stroke="none" stroke-width="1" fill="none" fill-rule="evenodd" fill-opacity="0.87">
        <g id="icon/archive" fill="#404040">
            <path d="M5.67484761,3 C5.31509654,3.00019005 4.98248461,3.18905805 4.801186,3.4960938 L3.0360731,6.4863281 L3.03014334,6.4960938 L0,11.486328 L1.7354637,12.513672 L2.89178059,10.609375 L2.89178059,19 C2.89178059,20.093063 3.80962314,21 4.91582933,21 L19.0841705,21 C20.1903769,21 21.1082193,20.093063 21.1082193,19 L21.1082193,10.609375 L22.2645361,12.513672 L24,11.486328 L20.9836927,6.5214844 C20.9792043,6.5129556 20.9745917,6.50449119 20.9698563,6.4960938 L19.1988137,3.4960938 C19.0175151,3.18905811 18.6849033,3.00019012 18.3251523,3 L5.67484761,3 Z M6.25597103,5 L17.7440286,5 L18.9240653,7 L5.07593472,7 L6.25597103,5 Z M4.91582933,9 L19.0841705,9 L19.0841705,19 L4.91582933,19 L4.91582933,9 Z M8.96392682,11 L8.96392682,13 L15.0360731,13 L15.0360731,11 L8.96392682,11 Z" id="Shape"></path>
        </g>
    </g>
</svg>