<?xml version="1.0" encoding="UTF-8"?>
<svg width="24px" height="24px" viewBox="0 0 24 24" version="1.1" xmlns="http://www.w3.org/2000/svg" xmlns:xlink="http://www.w3.org/1999/xlink">
    <!-- Generator: sketchtool 59.1 (101010) - https://sketch.com -->
    <title>icon/arrows</title>
    <desc>Created with sketchtool.</desc>
    <defs>
        <path d="M19.6547989,15.763477 L12.6463963,21.6919746 C12.2733399,22.0075478 11.7268583,22.0073137 11.3540724,21.691421 L4.35783566,15.7629234 C3.93648471,15.4058774 3.88435521,14.774862 4.24140118,14.3535111 C4.43140438,14.1292878 4.7104244,14 5.00432456,14 L19.0089639,14 C19.5612487,14 20.0089639,14.4477153 20.0089639,15 C20.0089639,15.2941997 19.8794136,15.5734726 19.6547989,15.763477 L19.6547989,15.763477 Z M19.6612063,8.24057046 C19.8838353,8.4305633 20.0120552,8.70855102 20.0120552,9.00122993 C20.0120552,9.55351468 19.5643399,10.0012299 19.0120552,10.0012299 L5.00588196,10.0012299 C4.71360747,10.0012299 4.43596198,9.87336272 4.24597444,9.65126114 C3.88697212,9.23157581 3.93616542,8.60032474 4.35585075,8.24132242 L11.3507301,2.2578445 C11.7246314,1.9380062 12.2756411,1.93768727 12.6499124,2.25709254 L19.6612063,8.24057046 L19.6612063,8.24057046 Z" id="path-1"></path>
    </defs>
    <g id="Icons" stroke="none" stroke-width="1" fill="none" fill-rule="evenodd">
        <g id="icon/arrows">
            <mask id="mask-2" fill="white">
                <use xlink:href="#path-1"></use>
            </mask>
            <use id="arrows" fill="#404040" xlink:href="#path-1"></use>
        </g>
    </g>
</svg>