<?xml version="1.0" encoding="UTF-8"?>
<svg width="24px" height="24px" viewBox="0 0 24 24" version="1.1" xmlns="http://www.w3.org/2000/svg" xmlns:xlink="http://www.w3.org/1999/xlink">
    <!-- Generator: sketchtool 63.1 (101010) - https://sketch.com -->
    <title>icon/attachment</title>
    <desc>Created with sketchtool.</desc>
    <g id="Icons" stroke="none" stroke-width="1" fill="none" fill-rule="evenodd">
        <g id="icon/attachment" fill="#404040" fill-rule="nonzero">
            <path d="M15.6363636,6.54545455 L15.6363636,17 C15.6363636,19.0083082 14.0083082,20.0368957 12,20.0368957 C9.99169182,20.0368957 8.36363636,19.0083082 8.36363636,17 L8.36363636,5.63636364 C8.36363636,4.38117102 9.38117102,3.94385494 10.6363636,3.94385494 C11.8915562,3.94385494 12.9090909,4.38117102 12.9090909,5.63636364 L12.9090909,15.1818182 C12.9090909,15.6838952 12.4755661,16.5323123 11.973489,16.5323123 C11.471412,16.5323123 11.0909091,15.6838952 11.0909091,15.1818182 L11.0909091,7.02841668 L9.11047408,7.02841668 L9.11047408,15.1818182 C9.11047408,15.7941079 9.31020397,16.8752409 9.84781976,17.5270237 C10.4123152,18.2113943 11.3305861,18.4519333 11.973489,18.4519333 C12.5914665,18.4519333 13.4602137,18.1727124 14.0514316,17.5270237 C14.661054,16.8612348 14.9837932,15.8190333 14.9837932,15.1818182 L14.9837932,5.63636364 C14.9837932,3.62805546 12.6446718,2 10.6363636,2 C8.62805546,2 6.46699481,3.62805546 6.46699481,5.63636364 L6.46699481,17 C6.46699481,19.7614237 9.23857625,22 12,22 C14.7614237,22 17.4799832,19.7614237 17.4799832,17 L17.4799832,6.54545455 L15.6363636,6.54545455 Z" id="Path"></path>
        </g>
    </g>
</svg>