<?xml version="1.0" encoding="UTF-8"?>
<svg width="24px" height="24px" viewBox="0 0 24 24" version="1.1" xmlns="http://www.w3.org/2000/svg" xmlns:xlink="http://www.w3.org/1999/xlink">
    <!-- Generator: sketchtool 55.2 (78181) - https://sketchapp.com -->
    <title>icon/auto_build</title>
    <desc>Created with sketchtool.</desc>
    <g id="Icons" stroke="none" stroke-width="1" fill="none" fill-rule="evenodd">
        <g id="icon/auto_build" fill="#404040">
            <path d="M5.15559061,17.8444094 L4,19 L4,15 L8,15 L6.57541768,16.4245823 C7.85905176,17.996444 9.81232934,19 12,19 C15.8659932,19 19,15.8659932 19,12 L21,12 C21,16.9705627 16.9705627,21 12,21 C9.26018292,21 6.8063089,19.7757322 5.15559061,17.8444094 L5.15559061,17.8444094 Z M18.8444094,6.15559061 L20,5 L20,9 L16,9 L17.4245823,7.57541768 C16.1409482,6.00355604 14.1876707,5 12,5 C8.13400675,5 5,8.13400675 5,12 L3,12 C3,7.02943725 7.02943725,3 12,3 C14.7398171,3 17.1936911,4.22426776 18.8444094,6.15559061 L18.8444094,6.15559061 Z M12,14 L9.64885899,15.236068 L10.097887,12.618034 L8.19577393,10.763932 L10.8244295,10.381966 L12,8 L13.1755705,10.381966 L15.8042261,10.763932 L13.902113,12.618034 L14.351141,15.236068 L12,14 Z" id="auto-build"></path>
        </g>
    </g>
</svg>