<?xml version="1.0" encoding="UTF-8"?>
<svg width="24px" height="24px" viewBox="0 0 24 24" version="1.1" xmlns="http://www.w3.org/2000/svg" xmlns:xlink="http://www.w3.org/1999/xlink">
    <!-- Generator: sketchtool 59.1 (101010) - https://sketch.com -->
    <title>icon/cloud</title>
    <desc>Created with sketchtool.</desc>
    <g id="Icons" stroke="none" stroke-width="1" fill="none" fill-rule="evenodd">
        <g id="icon/cloud" fill="#404040">
            <path d="M5.60876111,6.82035189 C6.92301116,6.17101163 8.25195114,6.12131589 9.59558105,6.67126465 C9.66874469,4.90963027 10.8964927,3.72405273 13.2788251,3.11453204 C13.6743559,3.03934618 14.0825831,3 14.5,3 C16.8400693,3 18.8913214,4.23657326 20.0359549,6.09191838 C20.6447506,7.17510904 20.7471048,8.30071958 20.3430176,9.46875 C21.8369234,9.85894869 22.7178765,11.0587222 22.9858769,13.0680705 C22.9952432,13.2108377 23,13.3548634 23,13.5 C23,16.9216149 20.3562239,19.7257427 17,19.9810552 L17,20 L6,20 C3.23857625,20 1,17.7614237 1,15 C1,14.7234409 1.02245338,14.4521261 1.06563663,14.187779 C1.08604046,14.1140164 1.10643861,14.0366122 1.12683105,13.9555664 C1.50052897,12.4703776 2.41780599,11.6544596 3.87866211,11.5078125 C3.35009397,9.94514166 3.64391268,8.59826772 4.76011823,7.46719069 C5.02078106,7.22534847 5.3049292,7.00846836 5.60876111,6.82035189 L5.60876111,6.82035189 Z M6.81757468,8.43014234 C6.47222541,8.61981259 6.16234808,8.86606274 5.90042365,9.1564118 C5.06774904,10.2081134 5.0337618,11.3487048 5.79846191,12.578186 C4.531796,12.5693377 3.69256293,12.9536515 3.28076271,13.7311274 C3.10062389,14.1165103 3,14.5465042 3,15 C3,16.6568542 4.34314575,18 6,18 L17,18 L17,17.9725356 C19.2499752,17.7238135 21,15.8162768 21,13.5 C21,13.1348954 20.9565192,12.7799462 20.8744532,12.4400483 C20.5479066,11.3773092 19.666965,10.6892039 18.2316284,10.3757324 C18.8841349,9.19108073 18.8300985,7.99517822 18.069519,6.7880249 C18.0409787,6.74272718 18.0137384,6.69882537 17.987798,6.65631946 C17.1626129,5.64543849 15.9066816,5 14.5,5 C13.7425069,5 13.0287282,5.18716325 12.4023858,5.51776771 C12.2740724,5.60419662 12.1399438,5.69379407 12,5.78656006 C10.9181722,6.50368245 10.4189657,7.537618 10.5023804,8.8883667 C9.3085077,7.9259424 8.08023914,7.77320095 6.81757468,8.43014234 L6.81757468,8.43014234 Z" id="cloud"></path>
        </g>
    </g>
</svg>