<?xml version="1.0" encoding="UTF-8"?>
<svg width="24px" height="24px" viewBox="0 0 24 24" version="1.1" xmlns="http://www.w3.org/2000/svg" xmlns:xlink="http://www.w3.org/1999/xlink">
    <!-- Generator: sketchtool 59.1 (101010) - https://sketch.com -->
    <title>icon/company_custom</title>
    <desc>Created with sketchtool.</desc>
    <g id="Icons" stroke="none" stroke-width="1" fill="none" fill-rule="evenodd">
        <g id="icon/company_custom" fill="#404040">
            <path d="M13.245371,22 C13.7276159,21.3984195 14.1247413,20.7256647 14.418483,20 L18,20 L18,4 L6,4 L6,9.06189375 C5.30135991,9.14901294 4.63069625,9.3262177 4,9.58151705 L4,2 L20,2 L20,22 L13.245371,22 L13.245371,22 Z M10,9.58151705 C9.36930375,9.3262177 8.69864009,9.14901294 8,9.06189375 L8,9 L10,9 L10,9.58151705 L10,9.58151705 Z M12.2916488,11 C11.8942341,10.6492345 11.4617016,10.3373375 11,10.0702576 L11,9 L13,9 L13,11 L12.2916488,11 L12.2916488,11 Z M14.418483,14 C14.2964074,13.6984224 14.1564761,13.405983 14,13.1239928 L14,12 L16,12 L16,14 L14.418483,14 L14.418483,14 Z M8,6 L10,6 L10,8 L8,8 L8,6 Z M11,6 L13,6 L13,8 L11,8 L11,6 Z M14,9 L16,9 L16,11 L14,11 L14,9 Z M14,6 L16,6 L16,8 L14,8 L14,6 Z M7,16 C5.8952,16 5,15.1048 5,14 C5,12.8952 5.8952,12 7,12 C8.1048,12 9,12.8952 9,14 C9,15.1048 8.1048,16 7,16 Z M3,19.750175 C3,18.122862 5.09790039,17 7,17 C8.90209961,17 11,18.122862 11,19.750175 C11,22.7545132 3,22.7453666 3,19.750175 Z" id="company-custom"></path>
        </g>
    </g>
</svg>