<?xml version="1.0" encoding="UTF-8"?>
<svg width="24px" height="24px" viewBox="0 0 24 24" version="1.1" xmlns="http://www.w3.org/2000/svg" xmlns:xlink="http://www.w3.org/1999/xlink">
    <title>icon/document</title>
    <g id="Icons" stroke="none" stroke-width="1" fill="none" fill-rule="evenodd">
        <g id="icon/document" fill="#404040">
            <path d="M6,2 C4.9057453,2 4,2.9057453 4,4 L4,20 C4,21.094255 4.9057453,22 6,22 L18,22 C19.094255,22 20,21.094255 20,20 L20,8 L14,2 L6,2 Z M6,4 L13,4 L13,9 L18,9 L18,20 L6,20 L6,4 Z M8,12 L8,14 L16,14 L16,12 L8,12 Z M8,16 L8,18 L16,18 L16,16 L8,16 Z" id="Document"></path>
        </g>
    </g>
</svg>