<?xml version="1.0" encoding="UTF-8"?>
<svg width="24px" height="24px" viewBox="0 0 24 24" version="1.1" xmlns="http://www.w3.org/2000/svg" xmlns:xlink="http://www.w3.org/1999/xlink">
    <title>icon/done</title>
    <g id="Icons" stroke="none" stroke-width="1" fill="none" fill-rule="evenodd">
        <g id="icon/done" fill="#404040">
            <path d="M12,2 C6.4889971,2 2,6.4889971 2,12 C2,17.511003 6.4889971,22 12,22 C17.511003,22 22,17.511003 22,12 C22,6.4889971 17.511003,2 12,2 Z M12,4 C16.430123,4 20,7.5698774 20,12 C20,16.430123 16.430123,20 12,20 C7.5698774,20 4,16.430123 4,12 C4,7.5698774 7.5698774,4 12,4 Z M16.2929688,8.2929688 L10,14.585938 L7.7070312,12.2929688 L6.2929688,13.707031 L10,17.414062 L17.707031,9.7070312 L16.2929688,8.2929688 Z" id="Done"></path>
        </g>
    </g>
</svg>