<?xml version="1.0" encoding="UTF-8"?>
<svg width="24px" height="24px" viewBox="0 0 24 24" version="1.1" xmlns="http://www.w3.org/2000/svg" xmlns:xlink="http://www.w3.org/1999/xlink">
    <!-- Generator: sketchtool 63.1 (101010) - https://sketch.com -->
    <title>icon/error</title>
    <desc>Created with sketchtool.</desc>
    <g id="Icons" stroke="none" stroke-width="1" fill="none" fill-rule="evenodd" fill-opacity="0.87">
        <g id="icon/error" fill="#404040">
            <path d="M12,2 C6.4889971,2 2,6.4889971 2,12 C2,17.511003 6.4889971,22 12,22 C17.511003,22 22,17.511003 22,12 C22,6.4889971 17.511003,2 12,2 Z M12,4 C16.430123,4 20,7.5698774 20,12 C20,16.430123 16.430123,20 12,20 C7.5698774,20 4,16.430123 4,12 C4,7.5698774 7.5698774,4 12,4 Z M11,15 L11,17 L13,17 L13,15 L11,15 Z M11,7 L11,13 L13,13 L13,7 L11,7 Z" id="Error"></path>
        </g>
    </g>
</svg>