<?xml version="1.0" encoding="UTF-8"?>
<svg width="24px" height="24px" viewBox="0 0 24 24" version="1.1" xmlns="http://www.w3.org/2000/svg" xmlns:xlink="http://www.w3.org/1999/xlink">
    <!-- Generator: sketchtool 59.1 (101010) - https://sketch.com -->
    <title>icon/expert_tag</title>
    <desc>Created with sketchtool.</desc>
    <g id="Icons" stroke="none" stroke-width="1" fill="none" fill-rule="evenodd">
        <g id="icon/expert_tag" fill="#404040">
            <g id="Group" transform="translate(4.000000, 4.000000)">
                <path d="M6.5,0 L6.125,4 L11.125,4 L11.5,0 L13.5,0 L13.125,4 L16,4 L16,5.84248586 C14.6958343,5.30005236 13.675001,5.02883561 12.9375,5.02883561 C11.8312485,5.02883561 11.1305492,5.15924781 10.7599138,5.20497886 C10.5791258,5.22728549 10.0841055,5.35118453 9.34341862,5.69580264 C9.12268498,5.798503 9.09416479,5.77305209 8.74706756,5.99870594 L5.9375,6 L5.61348214,9.4539358 C5.26900939,10.1340295 5.06451534,10.9453926 5,11.8880253 L5.17532301,14.1298879 L5,16 L3,16 L3.375,12 L0,12 L0,10 L3.5625,10 L3.9375,6 L1,6 L1,4 L4.125,4 L4.5,0 L6.5,0 Z" id="Combined-Shape"></path>
                <polygon id="Path" points="12.5 15.9501553 8.48277907 18 9.25 13.6583592 6 10.5835921 10.4913895 9.95015528 12.5 6 14.5086105 9.95015528 19 10.5835921 15.75 13.6583592 16.5172209 18"></polygon>
            </g>
        </g>
    </g>
</svg>