<?xml version="1.0" encoding="UTF-8"?>
<svg width="24px" height="24px" viewBox="0 0 24 24" version="1.1" xmlns="http://www.w3.org/2000/svg" xmlns:xlink="http://www.w3.org/1999/xlink">
    <!-- Generator: sketchtool 55.2 (78181) - https://sketchapp.com -->
    <title>icon/expert</title>
    <desc>Created with sketchtool.</desc>
    <g id="Icons" stroke="none" stroke-width="1" fill="none" fill-rule="evenodd">
        <g id="icon/expert" fill="#404040">
            <path d="M16.9905386,6.68537252 L14.0819269,13 L6,13 L6,20 L11.9161822,20 L11.5731553,22 L5.00087166,22 C4.4481055,22 4,21.555163 4,21.0044225 L4,11.9955775 C4,11.4457352 4.44463086,11 5.00087166,11 L7,11 L7,6.99525338 C7,4.23645112 9.24419519,2 12,2 C14.657272,2 16.8303928,4.07054689 16.9905386,6.68537252 L16.9905386,6.68537252 Z M15,11 L15,7.00947762 C15,5.33663106 13.6568542,4 12,4 C10.3465171,4 9,5.34738902 9,7.00947762 L9,11 L15,11 Z M16.6,20.0568444 L13.2626165,21.8114107 L13.9,18.0951795 L11.2,15.46333 L14.9313082,14.9211392 L16.6,11.5400003 L18.2686918,14.9211392 L22,15.46333 L19.3,18.0951795 L19.9373835,21.8114107 L16.6,20.0568444 Z" id="expert"></path>
        </g>
    </g>
</svg>