<?xml version="1.0" encoding="UTF-8"?>
<svg width="24px" height="24px" viewBox="0 0 24 24" version="1.1" xmlns="http://www.w3.org/2000/svg" xmlns:xlink="http://www.w3.org/1999/xlink">
    <title>icon/feeds</title>
    <g id="Icons" stroke="none" stroke-width="1" fill="none" fill-rule="evenodd">
        <g id="icon/feeds" fill="#404040">
            <path d="M20,3 L12,3 C10.9,3 10,3.9 10,5 L10,11 C10,12.1 10.9,13 12,13 L20,13 C21.1,13 22,12.1 22,11 L22,5 C22,3.9 21.1,3 20,3 Z M4,12 L4,19 L13,19 L13,21 L4,21 C2.9,21 2,20.1 2,19 L2,19 L2,12 L4,12 Z M8,8 L8,15 L17,15 L17,17 L8,17 C6.9,17 6,16.1 6,15 L6,15 L6,8 L8,8 Z M20,7 L20,11 L12,11 L12,7 L20,7 Z" id="Shape"></path>
        </g>
    </g>
</svg>