<?xml version="1.0" encoding="UTF-8"?>
<svg width="24px" height="24px" viewBox="0 0 24 24" version="1.1" xmlns="http://www.w3.org/2000/svg" xmlns:xlink="http://www.w3.org/1999/xlink">
    <!-- Generator: sketchtool 55.2 (78181) - https://sketchapp.com -->
    <title>icon/feed</title>
    <desc>Created with sketchtool.</desc>
    <g id="Icons" stroke="none" stroke-width="1" fill="none" fill-rule="evenodd">
        <g id="icon/feed" fill="#404040">
            <path d="M19,15.2128305 L19,5 L5,5 L5,15.8356608 L7.0172612,14.2437324 L9.38643932,16.1790054 L14.7610559,12 L19,15.2128305 L19,15.2128305 Z M19,17.4984013 L14.7610559,14.0031738 L9.38643932,18.3001709 L7.0172612,16.4217529 L5,17.8134992 L5,19 L19,19 L19,17.4984013 L19,17.4984013 Z M5,3 L19,3 C20.1045695,3 21,3.8954305 21,5 L21,19 C21,20.1045695 20.1045695,21 19,21 L5,21 C3.8954305,21 3,20.1045695 3,19 L3,5 C3,3.8954305 3.8954305,3 5,3 Z M5,9 L19,9 L19,11 L5,11 L5,9 Z M10,6 L17,6 L17,8 L10,8 L10,6 Z M6,6 L8,6 L8,8 L6,8 L6,6 Z" id="feed"></path>
        </g>
    </g>
</svg>