<?xml version="1.0" encoding="UTF-8"?>
<svg width="24px" height="24px" viewBox="0 0 24 24" version="1.1" xmlns="http://www.w3.org/2000/svg" xmlns:xlink="http://www.w3.org/1999/xlink">
    <!-- Generator: sketchtool 59.1 (101010) - https://sketch.com -->
    <title>icon/fill</title>
    <desc>Created with sketchtool.</desc>
    <g id="Icons" stroke="none" stroke-width="1" fill="none" fill-rule="evenodd">
        <g id="icon/fill" fill="#404040">
            <path d="M6.66421356,5.33578644 L9.8890873,8.56066017 L8.47487373,9.97487373 L5.25,6.75 L3,9 L3,3 L9,3 L6.66421356,5.33578644 Z M18.7248737,6.72487373 L15.4748737,9.97487373 L14.0606602,8.56066017 L17.3106602,5.31066017 L15,3 L21,3 L21,9 L18.7248737,6.72487373 Z M17.25,18.75 L13.9393398,15.4393398 L15.3535534,14.0251263 L18.6642136,17.3357864 L21,15 L21,21 L15,21 L17.25,18.75 L17.25,18.75 Z M5.31066017,17.3106602 L8.59619408,14.0251263 L10.0104076,15.4393398 L6.72487373,18.7248737 L9,21 L3,21 L3,15 L5.31066017,17.3106602 Z" id="fill"></path>
        </g>
    </g>
</svg>