<?xml version="1.0" encoding="UTF-8"?>
<svg width="24px" height="24px" viewBox="0 0 24 24" version="1.1" xmlns="http://www.w3.org/2000/svg" xmlns:xlink="http://www.w3.org/1999/xlink">
    <title>icon/hashtag</title>
    <g id="Icons" stroke="none" stroke-width="1" fill="none" fill-rule="evenodd">
        <g id="icon/hashtag" fill="#404040">
            <path d="M11,2 L10.1,8 L15.1,8 L16,2 L18,2 L17.1,8 L22,8 L22,10 L16.8,10 L16.2,14 L21,14 L21,16 L15.9,16 L15,22 L13,22 L13.9,16 L8.9,16 L8,22 L6,22 L6.9,16 L2,16 L2,14 L7.2,14 L7.8,10 L3,10 L3,8 L8.1,8 L9,2 L11,2 Z M14.8,10 L9.8,10 L9.2,14 L14.2,14 L14.8,10 Z" id="ExpertTag"></path>
        </g>
    </g>
</svg>