<?xml version="1.0" encoding="UTF-8"?>
<svg width="24px" height="24px" viewBox="0 0 24 24" version="1.1" xmlns="http://www.w3.org/2000/svg" xmlns:xlink="http://www.w3.org/1999/xlink">
    <!-- Generator: sketchtool 63.1 (101010) - https://sketch.com -->
    <title>icon/help</title>
    <desc>Created with sketchtool.</desc>
    <g id="Icons" stroke="none" stroke-width="1" fill="none" fill-rule="evenodd" fill-opacity="0.87">
        <g id="icon/help" fill="#404040">
            <path d="M12,2 C6.4889971,2 2,6.4889971 2,12 C2,17.511003 6.4889971,22 12,22 C17.511003,22 22,17.511003 22,12 C22,6.4889971 17.511003,2 12,2 Z M12,4 C16.430123,4 20,7.5698774 20,12 C20,16.430123 16.430123,20 12,20 C7.5698774,20 4,16.430123 4,12 C4,7.5698774 7.5698774,4 12,4 Z M12,6 C9.79,6 8,7.79 8,10 L10,10 C10,8.9 10.9,8 12,8 C13.1,8 14,8.9 14,10 C14,12 11,12.367 11,15 L13,15 C13,13.349 16,12.5 16,10 C16,7.79 14.21,6 12,6 Z M11,16 L11,18 L13,18 L13,16 L11,16 Z" id="Help"></path>
        </g>
    </g>
</svg>