<?xml version="1.0" encoding="UTF-8"?>
<svg width="24px" height="24px" viewBox="0 0 24 24" version="1.1" xmlns="http://www.w3.org/2000/svg" xmlns:xlink="http://www.w3.org/1999/xlink">
    <!-- Generator: sketchtool 63.1 (101010) - https://sketch.com -->
    <title>icon/history</title>
    <desc>Created with sketchtool.</desc>
    <g id="Icons" stroke="none" stroke-width="1" fill="none" fill-rule="evenodd">
        <g id="icon/history" fill="#404040" fill-rule="nonzero">
            <path d="M13.8055556,8.72222222 L12.3888889,8.72222222 L12.3888889,13.4444444 L16.4311111,15.8433333 L17.1111111,14.7005556 L13.8055556,12.7361111 L13.8055556,8.72222222 M13.3333333,4 C8.63891296,4 4.83333333,7.80557963 4.83333333,12.5 L2,12.5 L5.74,16.3061111 L9.55555556,12.5 L6.72222222,12.5 C6.72222222,8.84878415 9.68211749,5.88888889 13.3333333,5.88888889 C16.9845492,5.88888889 19.9444444,8.84878415 19.9444444,12.5 C19.9444444,16.1512158 16.9845492,19.1111111 13.3333333,19.1111111 C11.5105556,19.1111111 9.85777778,18.365 8.66777778,17.1655556 L7.32666667,18.5066667 C8.86611111,20.0555556 10.9722222,21 13.3333333,21 C18.0277537,21 21.8333333,17.1944204 21.8333333,12.5 C21.8333333,7.80557963 18.0277537,4 13.3333333,4" id="Shape"></path>
        </g>
    </g>
</svg>