<?xml version="1.0" encoding="UTF-8"?>
<svg width="24px" height="24px" viewBox="0 0 24 24" version="1.1" xmlns="http://www.w3.org/2000/svg" xmlns:xlink="http://www.w3.org/1999/xlink">
    <!-- Generator: sketchtool 63.1 (101010) - https://sketch.com -->
    <title>icon/import </title>
    <desc>Created with sketchtool.</desc>
    <g id="Icons" stroke="none" stroke-width="1" fill="none" fill-rule="evenodd">
        <g id="icon/import-" fill="#404040">
            <path d="M15,2 L15,2.00841361 L19.9970671,7 L20,7 L20,11 L18,11 L18,9 L13,9 L13,4 L6,4 L6,20 L18,20 L18,19 L20,19 L20,22 L4,22 L4,2 L15,2 Z M15,11 L15.0258978,14 L20,14 L19.9841528,16 L15.0258978,16 L15,19 L10,15 L15,11 Z M15,5 L15,7 L17,7 L15,5 Z" id="Combined-Shape"></path>
        </g>
    </g>
</svg>