<?xml version="1.0" encoding="UTF-8"?>
<svg width="24px" height="24px" viewBox="0 0 24 24" version="1.1" xmlns="http://www.w3.org/2000/svg" xmlns:xlink="http://www.w3.org/1999/xlink">
    <!-- Generator: sketchtool 59.1 (101010) - https://sketch.com -->
    <title>icon/investor</title>
    <desc>Created with sketchtool.</desc>
    <g id="Icons" stroke="none" stroke-width="1" fill="none" fill-rule="evenodd">
        <g id="icon/investor" fill="#404040">
            <path d="M17,6 L20.0066023,6 C20.5552407,6 21,6.44892021 21,7.00748397 L21,19.992516 C21,20.5489341 20.5550537,21 20.0066023,21 L3.99339768,21 C3.44475929,21 3,20.5510798 3,19.992516 L3,7.00748397 C3,6.45106594 3.44494629,6 3.99339768,6 L7,6 L7,4.99188419 C7,3.89179693 7.88743329,3 8.99961498,3 L15.000385,3 C16.1047419,3 17,3.89339733 17,4.99188419 L17,6 Z M9,6 L15,6 L15,5 L9,5 L9,6 Z M5,8 L5,19 L19,19 L19,8 L5,8 Z M13.2427386,14.9847914 C13.2427386,14.755092 13.1504149,14.5720502 12.9657676,14.4356662 C12.7821577,14.3 12.4688797,14.1743831 12.026971,14.0595334 C11.5850622,13.9446837 11.2043568,13.8305518 10.8848548,13.7164199 C10.5643154,13.6030058 10.2894191,13.4730821 10.0612033,13.3252131 C9.83195021,13.1780619 9.65352697,13.0050695 9.52593361,12.806236 C9.39834025,12.6066846 9.3340249,12.3698071 9.3340249,12.0956034 C9.3340249,11.6211306 9.55290456,11.232795 9.9906639,10.9305967 C10.4284232,10.6276806 11.0103734,10.4510991 11.7354772,10.4001346 L11.7354772,9.5 L12.7074689,9.5 L12.7074689,10.4130552 C13.4253112,10.4834006 13.9865145,10.6901301 14.3921162,11.0332436 C14.7977178,11.3770749 15,11.8221175 15,12.3683715 L13.2427386,12.3683715 C13.2427386,12.0324361 13.1421162,11.7804845 12.9419087,11.6139524 C12.7417012,11.4467026 12.473029,11.3634365 12.1369295,11.3634365 C11.8039419,11.3634365 11.5466805,11.4287573 11.3641079,11.5593988 C11.1825726,11.6893226 11.0912863,11.869493 11.0912863,12.0991925 C11.0912863,12.3123822 11.1804979,12.483939 11.3589212,12.6124271 C11.5363071,12.741633 11.8682573,12.8737102 12.3526971,13.0079408 C12.8360996,13.1428892 13.2344398,13.2692239 13.5466805,13.3883804 C13.8589212,13.507537 14.1224066,13.6424854 14.3371369,13.7925079 C14.5518672,13.9425303 14.7157676,14.1133692 14.8298755,14.3057425 C14.9429461,14.4973979 15,14.7213549 15,14.9761777 C15,15.4528039 14.7852697,15.8397039 14.3558091,16.1368775 C13.9253112,16.434769 13.3340249,16.6099148 12.5798755,16.6630328 L12.5798755,17.5 L11.6141079,17.5 L11.6141079,16.6673396 C10.783195,16.6056079 10.1400415,16.4017497 9.68360996,16.0550471 C9.22821577,15.7090624 9,15.2482279 9,14.6732616 L10.7572614,14.6732616 C10.7572614,15.0070435 10.8713693,15.2633019 11.1006224,15.441319 C11.3288382,15.619336 11.6587137,15.7083445 12.0881743,15.7083445 C12.4439834,15.7083445 12.7261411,15.6430238 12.9325726,15.5123822 C13.1390041,15.3824585 13.2427386,15.2065949 13.2427386,14.9847914 Z" id="investor"></path>
        </g>
    </g>
</svg>