<?xml version="1.0" encoding="UTF-8"?>
<svg width="24px" height="24px" viewBox="0 0 24 24" version="1.1" xmlns="http://www.w3.org/2000/svg" xmlns:xlink="http://www.w3.org/1999/xlink">
    <title>icon/linkedin_filled</title>
    <g id="Icons" stroke="none" stroke-width="1" fill="none" fill-rule="evenodd">
        <g id="icon/linkedin_filled" fill="#404040" fill-rule="nonzero">
            <g id="linkedin" transform="translate(3.000000, 3.000000)">
                <path d="M16,0 C17.1045695,0 18,0.8954305 18,2 L18,16 C18,17.1045695 17.1045695,18 16,18 L2,18 C0.8954305,18 0,17.1045695 0,16 L0,2 C0,0.8954305 0.8954305,0 2,0 L16,0 M15.5,15.5 L15.5,10.2 C15.5,8.39955172 14.0404483,6.94 12.24,6.94 C11.39,6.94 10.4,7.46 9.92,8.24 L9.92,7.13 L7.13,7.13 L7.13,15.5 L9.92,15.5 L9.92,10.57 C9.92,9.8 10.54,9.17 11.31,9.17 C12.0831986,9.17 12.71,9.79680135 12.71,10.57 L12.71,15.5 L15.5,15.5 M3.88,5.56 C4.80783838,5.56 5.56,4.80783838 5.56,3.88 C5.56,2.95 4.81,2.19 3.88,2.19 C2.94663877,2.19 2.19,2.94663877 2.19,3.88 C2.19,4.81 2.95,5.56 3.88,5.56 M5.27,15.5 L5.27,7.13 L2.5,7.13 L2.5,15.5 L5.27,15.5 Z" id="Shape"></path>
            </g>
        </g>
    </g>
</svg>