<?xml version="1.0" encoding="UTF-8"?>
<svg width="24px" height="24px" viewBox="0 0 24 24" version="1.1" xmlns="http://www.w3.org/2000/svg" xmlns:xlink="http://www.w3.org/1999/xlink">
    <title>icon/lock</title>
    <g id="Icons" stroke="none" stroke-width="1" fill="none" fill-rule="evenodd">
        <g id="icon/lock" fill="#404040">
            <path d="M18,9 L17,9 L17,7 C17,4.24 14.76,2 12,2 C9.24,2 7,4.24 7,7 L7,9 L6,9 C4.9,9 4,9.9 4,11 L4,20 C4,21.1 4.9,22 6,22 L18,22 C19.1,22 20,21.1 20,20 L20,11 C20,9.9 19.1,9 18,9 Z M9,6.5 C9,5.11666667 10.34,4 12,4 C13.66,4 15,5.11666667 15,6.5 L15,9 L9,9 L9,6.5 Z M18,11 L18,20 L6,20 L6,11 L18,11 Z M13,14 L11,14 L11,18 L13,18 L13,14 Z" id="Lock"></path>
        </g>
    </g>
</svg>