<?xml version="1.0" encoding="UTF-8"?>
<svg width="24px" height="24px" viewBox="0 0 24 24" version="1.1" xmlns="http://www.w3.org/2000/svg" xmlns:xlink="http://www.w3.org/1999/xlink">
    <title>icon/microscope</title>
    <g id="Icons" stroke="none" stroke-width="1" fill="none" fill-rule="evenodd">
        <g id="icon/microscope" fill="#000000" fill-rule="nonzero">
            <path d="M4,23 L4,21.2631579 L9.94285714,21.2631579 L9.94285714,18.2526316 L9.51428571,18.2526316 C7.97142857,18.2526316 6.66666667,17.7122807 5.6,16.6315789 C4.53333333,15.5508772 4,14.2289474 4,12.6657895 C4,11.4885965 4.31904762,10.4223684 4.95714286,9.46710526 C5.5952381,8.51184211 6.48571429,7.83157895 7.62857143,7.42631579 C7.7047619,6.69298246 8.04285714,6.0754386 8.64285714,5.57368421 C9.24285714,5.07192982 9.92380952,4.85 10.6857143,4.90789474 L10.0857143,3.2 L11.2571429,2.76578947 L10.8571429,1.69473684 L12.7428571,1 L13.1428571,2.07105263 L14.2857143,1.66578947 L17.5142857,10.2052632 L16.2857143,10.6394737 L16.6857143,11.7105263 L14.8571429,12.3763158 L14.4571429,11.3052632 L13.2285714,11.7684211 L12.5142857,9.8 C12.2285714,10.1280702 11.8904762,10.3644737 11.5,10.5092105 C11.1095238,10.6539474 10.6952381,10.7166667 10.2571429,10.6973684 C9.8,10.6780702 9.34761905,10.5236842 8.9,10.2342105 C8.45238095,9.94473684 8.11428571,9.57807018 7.88571429,9.13421053 C7.16190476,9.4622807 6.61904762,9.9495614 6.25714286,10.5960526 C5.8952381,11.2425439 5.71428571,11.9324561 5.71428571,12.6657895 C5.71428571,13.7464912 6.08095238,14.6583333 6.81428571,15.4013158 C7.54761905,16.1442982 8.44761905,16.5157895 9.51428571,16.5157895 L19.4285714,16.5157895 L19.4285714,18.2526316 L12.8,18.2526316 L12.8,21.2631579 L20,21.2631579 L20,23 L4,23 Z M14.1714286,9.91578947 L15.6857143,9.36578947 L13.4,3.40263158 L11.8857143,3.95263158 L14.1714286,9.91578947 Z M10.4571429,9.25 C10.8571429,9.25 11.1952381,9.11008772 11.4714286,8.83026316 C11.747619,8.5504386 11.8857143,8.20789474 11.8857143,7.80263158 C11.8857143,7.39736842 11.747619,7.05482456 11.4714286,6.775 C11.1952381,6.49517544 10.8571429,6.35526316 10.4571429,6.35526316 C10.0571429,6.35526316 9.71904762,6.49517544 9.44285714,6.775 C9.16666667,7.05482456 9.02857143,7.39736842 9.02857143,7.80263158 C9.02857143,8.20789474 9.16666667,8.5504386 9.44285714,8.83026316 C9.71904762,9.11008772 10.0571429,9.25 10.4571429,9.25 Z" id="microscope"></path>
        </g>
    </g>
</svg>