<?xml version="1.0" encoding="UTF-8"?>
<svg width="24px" height="24px" viewBox="0 0 24 24" version="1.1" xmlns="http://www.w3.org/2000/svg" xmlns:xlink="http://www.w3.org/1999/xlink">
    <!-- Generator: sketchtool 55.2 (78181) - https://sketchapp.com -->
    <title>icon/nope</title>
    <desc>Created with sketchtool.</desc>
    <g id="Icons" stroke="none" stroke-width="1" fill="none" fill-rule="evenodd">
        <g id="icon/nope" fill="#404040">
            <path d="M6.43318107,7.75551154 C5.53404889,8.93296349 5,10.4041148 5,12 C5,15.8659932 8.13400675,19 12,19 C13.5958852,19 15.0670365,18.4659511 16.2444885,17.5668189 L6.43318107,7.75551154 L6.43318107,7.75551154 Z M7.86058428,6.35448763 L17.6455124,16.1394157 C18.4970258,14.9800429 19,13.5487594 19,12 C19,8.13400675 15.8659932,5 12,5 C10.4512406,5 9.01995705,5.50297416 7.86058428,6.35448763 L7.86058428,6.35448763 Z M12,21 C7.02943725,21 3,16.9705627 3,12 C3,7.02943725 7.02943725,3 12,3 C16.9705627,3 21,7.02943725 21,12 C21,16.9705627 16.9705627,21 12,21 Z" id="nope"></path>
        </g>
    </g>
</svg>