<?xml version="1.0" encoding="UTF-8"?>
<svg width="24px" height="24px" viewBox="0 0 24 24" version="1.1" xmlns="http://www.w3.org/2000/svg" xmlns:xlink="http://www.w3.org/1999/xlink">
    <!-- Generator: sketchtool 59.1 (101010) - https://sketch.com -->
    <title>icon/numbers</title>
    <desc>Created with sketchtool.</desc>
    <g id="Icons" stroke="none" stroke-width="1" fill="none" fill-rule="evenodd">
        <g id="icon/numbers" fill="#404040">
            <path d="M7,14.390625 L5.6953125,14.390625 L5.6953125,5.6875 L3,6.5234375 L3,4.6875 L7.7109375,3 L7.953125,3 L7.953125,9.92079154 C7.87956207,10.0304919 7.8096591,10.143552 7.74341605,10.2599721 C7.27083168,11.0905237 7.02356349,12.003858 7.00160083,13 L7,13 L7,14.390625 Z M16.5703125,21 L8.7734375,21 L8.7734375,19.453125 L12.453125,15.53125 C12.9583359,14.9791639 13.33203,14.4973979 13.5742188,14.0859375 C13.8164075,13.6744771 13.9375,13.283856 13.9375,12.9140625 C13.9375,12.4088516 13.8098971,12.0117202 13.5546875,11.7226562 C13.2994779,11.4335923 12.9348982,11.2890625 12.4609375,11.2890625 C11.9505183,11.2890625 11.5481786,11.464842 11.2539062,11.8164062 C10.9596339,12.1679705 10.8125,12.6302055 10.8125,13.203125 L8.546875,13.203125 C8.546875,12.5104132 8.71223793,11.877607 9.04296875,11.3046875 C9.37369957,10.731768 9.84114281,10.2825537 10.4453125,9.95703125 C11.0494822,9.63150879 11.7343712,9.46875 12.5,9.46875 C13.6718809,9.46875 14.582028,9.74999719 15.2304688,10.3125 C15.8789095,10.8750028 16.203125,11.6692657 16.203125,12.6953125 C16.203125,13.2578153 16.0572931,13.8307263 15.765625,14.4140625 C15.4739569,14.9973988 14.9739619,15.6770795 14.265625,16.453125 L11.6796875,19.1796875 L16.5703125,19.1796875 L16.5703125,21 Z M17.2747841,14.6342574 C17.5119335,14.0218434 17.6432111,13.4171052 17.6686192,12.8200337 C17.8110894,12.8514696 17.9621745,12.8671875 18.121875,12.8671875 C18.658336,12.8671875 19.0789047,12.7252618 19.3835938,12.4414062 C19.6882828,12.1575507 19.840625,11.7812523 19.840625,11.3125 C19.840625,10.1770777 19.2156313,9.609375 17.965625,9.609375 L16.7946475,9.609375 C16.7865912,9.59855959 16.7784796,9.58778436 16.7703125,9.57704931 L16.7703125,7.84375 L17.9734375,7.84375 C18.546357,7.84375 18.970832,7.70052227 19.246875,7.4140625 C19.522918,7.12760273 19.6609375,6.7473982 19.6609375,6.2734375 C19.6609375,5.81510187 19.5242201,5.45833461 19.2507813,5.203125 C18.9773424,4.94791539 18.6010441,4.8203125 18.121875,4.8203125 C17.6895812,4.8203125 17.3276056,4.9388009 17.0359375,5.17578125 C16.7442694,5.4127616 16.5984375,5.72135227 16.5984375,6.1015625 L14.340625,6.1015625 C14.340625,5.50780953 14.5007796,4.97526277 14.8210938,4.50390625 C15.1414079,4.03254973 15.58932,3.66406383 16.1648438,3.3984375 C16.7403675,3.13281117 17.3744757,3 18.0671875,3 C19.2703185,3 20.2130174,3.28775754 20.8953125,3.86328125 C21.5776076,4.43880496 21.91875,5.23176578 21.91875,6.2421875 C21.91875,6.76302344 21.7598974,7.24218531 21.4421875,7.6796875 C21.1244776,8.11718969 20.7078151,8.45312383 20.1921875,8.6875 C20.8328157,8.91666781 21.3106755,9.26041437 21.6257813,9.71875 C21.940887,10.1770856 22.0984375,10.7187469 22.0984375,11.34375 C22.0984375,12.3541717 21.7299516,13.1640595 20.9929688,13.7734375 C20.2559859,14.3828155 19.2807352,14.6875 18.0671875,14.6875 C17.7907832,14.6875 17.5266489,14.6697525 17.2747841,14.6342574 L17.2747841,14.6342574 Z" id="numbers"></path>
        </g>
    </g>
</svg>