<?xml version="1.0" encoding="UTF-8"?>
<svg width="24px" height="24px" viewBox="0 0 24 24" version="1.1" xmlns="http://www.w3.org/2000/svg" xmlns:xlink="http://www.w3.org/1999/xlink">
    <!-- Generator: sketchtool 63.1 (101010) - https://sketch.com -->
    <title>icon/order_alphabetical_az</title>
    <desc>Created with sketchtool.</desc>
    <defs>
        <path d="M20.414258,8.25390625 L17.4357424,8.25390625 L16.7667971,10.109375 L15.8000002,10.109375 L18.5148439,3 L19.3351564,3 L22.054883,10.109375 L21.0929689,10.109375 L20.414258,8.25390625 Z M10,14 L10,5 L8,5 L8,14 L6,14 L9,18 L12,14 L10,14 L10,14 Z M12,12 L16,12 L9,21 L2,12 L6,12 L6,3 L12,3 L12,12 Z M17.7189455,7.48242188 L20.1359377,7.48242188 L18.9250002,4.15722656 L17.7189455,7.48242188 Z M17.4551573,20.2333984 L21.5225401,20.2333984 L21.5225401,21 L16.3467588,21 L16.3467588,20.296875 L20.2432432,14.6621094 L16.4102354,14.6621094 L16.4102354,13.890625 L21.3662901,13.890625 L21.3662901,14.5791016 L17.4551573,20.2333984 Z" id="path-1"></path>
    </defs>
    <g id="Icons" stroke="none" stroke-width="1" fill="none" fill-rule="evenodd">
        <g id="icon/order_alphabetical_az">
            <mask id="mask-2" fill="white">
                <use xlink:href="#path-1"></use>
            </mask>
            <use id="az" fill="#404040" xlink:href="#path-1"></use>
        </g>
    </g>
</svg>