<?xml version="1.0" encoding="UTF-8"?>
<svg width="24px" height="24px" viewBox="0 0 24 24" version="1.1" xmlns="http://www.w3.org/2000/svg" xmlns:xlink="http://www.w3.org/1999/xlink">
    <!-- Generator: sketchtool 63.1 (101010) - https://sketch.com -->
    <title>icon/patent</title>
    <desc>Created with sketchtool.</desc>
    <g id="Icons" stroke="none" stroke-width="1" fill="none" fill-rule="evenodd">
        <g id="icon/patent" fill="#404040">
            <path d="M8,13.1904278 C6.76732995,12.0074979 6,10.3433587 6,8.5 C6,4.91014913 8.91014913,2 12.5,2 C16.0898509,2 19,4.91014913 19,8.5 C19,10.3433587 18.2326701,12.0074979 17,13.1904278 L17,22 L12.5,19.2142857 L8,22 L8,13.1904278 Z M15,14.5018367 C14.2304079,14.8227719 13.3859009,15 12.5,15 C11.6140991,15 10.7695921,14.8227719 10,14.5018367 L10,18.5 L12.5,17.1666667 L15,18.5 L15,14.5018367 L15,14.5018367 Z M12.5,13 C14.9852814,13 17,10.9852814 17,8.5 C17,6.01471863 14.9852814,4 12.5,4 C10.0147186,4 8,6.01471863 8,8.5 C8,10.9852814 10.0147186,13 12.5,13 Z" id="patent"></path>
        </g>
    </g>
</svg>