<?xml version="1.0" encoding="UTF-8"?>
<svg width="24px" height="24px" viewBox="0 0 24 24" version="1.1" xmlns="http://www.w3.org/2000/svg" xmlns:xlink="http://www.w3.org/1999/xlink">
    <!-- Generator: sketchtool 63.1 (101010) - https://sketch.com -->
    <title>icon/phone</title>
    <desc>Created with sketchtool.</desc>
    <defs>
        <path d="M21,17.2157927 C21,17.4459056 20.3668517,19.6688276 19.0440411,20.3478693 C17.7212304,21.026911 17.4503007,20.9998526 16.6662087,20.9998526 C16.4178082,20.9998526 11.7521848,20.3478693 7.70459294,16.2953457 C3.65700108,12.242822 3.00006428,7.56388423 3.00006428,7.33377132 C3.00006428,6.54968292 2.97993556,6.27419091 3.65205059,4.95594989 C4.32416562,3.63770887 6.55402771,3 6.78414168,3 C6.90346003,3 6.99294745,3.01278386 7.05260663,3.03835196 C7.20601594,3.08948816 9.36635646,6.58681477 9.55566737,7.02569569 C9.74497828,7.46457662 9.54549545,7.6743908 9.18115016,7.97297063 C8.81680487,8.27155046 8.11487807,9.08880289 8.11487807,9.24221149 C8.11487807,9.3189158 9.24751067,11.6540826 11.0419635,13.4720822 C12.8364163,15.2900818 14.836489,15.8775613 14.9131936,15.8775613 C15.0666029,15.8775613 15.7713242,15.0616922 16.0270064,14.8187952 C16.2826886,14.5758983 16.6662087,14.4037152 17.4843876,14.8187952 C18.3025665,15.2338753 20.9105114,16.7939203 20.9616479,16.9473289 C20.9872161,17.0069878 21,17.0964749 21,17.2157927 Z" id="path-1"></path>
    </defs>
    <g id="Icons" stroke="none" stroke-width="1" fill="none" fill-rule="evenodd">
        <g id="icon/phone">
            <mask id="mask-2" fill="white">
                <use xlink:href="#path-1"></use>
            </mask>
            <use id="phone" fill="#404040" xlink:href="#path-1"></use>
        </g>
    </g>
</svg>