<?xml version="1.0" encoding="UTF-8"?>
<svg width="24px" height="24px" viewBox="0 0 24 24" version="1.1" xmlns="http://www.w3.org/2000/svg" xmlns:xlink="http://www.w3.org/1999/xlink">
    <title>icon/plant_half</title>
    <g id="Icons" stroke="none" stroke-width="1" fill="none" fill-rule="evenodd">
        <g id="icon/plant_half" fill="#404040" fill-rule="nonzero">
            <g id="plant-half-shade" transform="translate(2.000000, 3.000000)">
                <g id="Group" opacity="0.3">
                    <path d="M9.99621511,14.0539554 C6.57596003,14.167334 3.19349783,14.8381575 0,16.0569777 L0,18.06 L19.9924302,18.06 L19.9924302,16.0569777 C16.7894842,14.8476057 13.4164702,14.167334 9.99621511,14.0539554 Z" id="Path"></path>
                    <path d="M7.89871062,8.75350484 C7.50188544,5.85290178 5.99961871,5.04980321 5.99961871,5.04980321 C8.79629137,5.04980321 8.99470395,8.45116185 8.99470395,8.45116185 L8.99470395,13.0524442 L10.9977263,13.0524442 L10.9977263,8.85743524 C10.9977263,8.85743524 10.9977263,4.95532102 13.9928115,3.96325809 C13.9928115,3.96325809 11.9897892,6.95834333 11.9897892,8.96136564 C18.9909191,9.66053381 18.9909191,0.0611438719 18.9909191,0.0611438719 C18.9909191,0.0611438719 10.0906973,-0.940367283 9.29704694,5.16318183 C8.0971232,1.26106761 2.00302231,2.16809658 2.00302231,2.16809658 C2.00302231,2.16809658 2.2014349,9.9628768 7.89871062,8.76295306 L7.89871062,8.75350484 Z" id="Path"></path>
                </g>
                <g id="plant" transform="translate(0.000000, 2.069238)">
                    <path d="M9.99621511,11.9847174 L9.99621511,15.9813138 L0,15.9813138 L0,13.9782914 C3.20294605,12.7689195 6.57596003,12.0886478 9.99621511,11.9752691 L9.99621511,11.9847174 Z" id="Path"></path>
                    <path d="M9.99621511,1.02478397 L9.99621511,10.9832062 L8.99470395,10.9832062 L8.99470395,6.38192382 C8.99470395,6.38192382 8.79629137,2.98056518 5.99961871,2.98056518 C5.99961871,2.98056518 7.50188544,3.78366375 7.89871062,6.68426681 C2.2014349,7.88419055 1.99357409,0.0894103408 1.99357409,0.0894103408 C1.99357409,0.0894103408 8.08767498,-0.808170411 9.28759873,3.08449559 C9.39152913,2.28139702 9.63718281,1.60112529 9.98676689,1.02478397 L9.99621511,1.02478397 Z" id="Path"></path>
                </g>
            </g>
        </g>
    </g>
</svg>