<?xml version="1.0" encoding="UTF-8"?>
<svg width="24px" height="24px" viewBox="0 0 24 24" version="1.1" xmlns="http://www.w3.org/2000/svg" xmlns:xlink="http://www.w3.org/1999/xlink">
    <!-- Generator: sketchtool 55.2 (78181) - https://sketchapp.com -->
    <title>icon/present</title>
    <desc>Created with sketchtool.</desc>
    <g id="Icons" stroke="none" stroke-width="1" fill="none" fill-rule="evenodd">
        <g id="icon/present" fill="#404040">
            <path d="M3,4.99508929 C3,3.8932319 3.8926228,3 4.99508929,3 L19.0049107,3 C20.1067681,3 21,3.8926228 21,4.99508929 L21,19.0049107 C21,20.1067681 20.1073772,21 19.0049107,21 L4.99508929,21 C3.8932319,21 3,20.1073772 3,19.0049107 L3,4.99508929 Z M5,5 L5,19 L19,19 L19,5 L5,5 Z M8,16.0046024 L8,7.99539757 C8,7.4556644 8.39369601,7.21867056 8.87934466,7.48841436 L16.1206553,11.5104552 C16.6132813,11.7840744 16.606304,12.217639 16.1206553,12.4875048 L8.87934466,16.5113647 C8.38671875,16.7851077 8,16.5543453 8,16.0046024 Z" id="present"></path>
        </g>
    </g>
</svg>