<?xml version="1.0" encoding="UTF-8"?>
<svg width="24px" height="24px" viewBox="0 0 24 24" version="1.1" xmlns="http://www.w3.org/2000/svg" xmlns:xlink="http://www.w3.org/1999/xlink">
    <title>icon/Quadrant_2</title>
    <g id="Icons" stroke="none" stroke-width="1" fill="none" fill-rule="evenodd" fill-opacity="0.87">
        <g id="icon/Quadrant_2" fill="#404040">
            <path d="M20,2 L4,2 C2.8954305,2 2,2.8954305 2,4 L2,20 C2,21.1045695 2.8954305,22 4,22 L20,22 C21.1045695,22 22,21.1045695 22,20 L22,4 C22,2.8954305 21.1045695,2 20,2 Z M4,4 L20,4 L20,20 L4,20 L4,4 Z M20,13 L13,13 L13,20 L11,20 L11,13 L4,13 L4,11 L11,11 L11,4 L20,4 L20,13 Z" id="Rectangle"></path>
        </g>
    </g>
</svg>