<?xml version="1.0" encoding="UTF-8"?>
<svg width="24px" height="24px" viewBox="0 0 24 24" version="1.1" xmlns="http://www.w3.org/2000/svg" xmlns:xlink="http://www.w3.org/1999/xlink">
    <!-- Generator: sketchtool 63.1 (101010) - https://sketch.com -->
    <title>icon/question</title>
    <desc>Created with sketchtool.</desc>
    <g id="Icons" stroke="none" stroke-width="1" fill="none" fill-rule="evenodd">
        <g id="icon/question" fill="#404040">
            <path d="M4.0097656,2 C2.9077656,2 2.0107656,2.8960469 2.0097656,3.9980469 L2,21.998047 L6,18 L20,18 C21.103,18 22,17.103 22,16 L22,4 C22,2.897 21.103,2 20,2 L4.0097656,2 Z M4.0097656,4 L20,4 L20,16 L5.171875,16 L4.0039062,17.169922 L4.0097656,4 Z M12,5 C9.954,5 9,6.79 9,8 L11,8 C11,7.835 11.174,7 12,7 C12.989,7 13,7.99 13,8 C13,9.054 11,11.025 11,12 L13,12 C13,11.014 15,9.422 15,8 C15,6.525 13.878,5 12,5 Z M11,13 L11,15 L13,15 L13,13 L11,13 Z" id="Question"></path>
        </g>
    </g>
</svg>