<?xml version="1.0" encoding="UTF-8"?>
<svg width="24px" height="24px" viewBox="0 0 24 24" version="1.1" xmlns="http://www.w3.org/2000/svg" xmlns:xlink="http://www.w3.org/1999/xlink">
    <!-- Generator: sketchtool 63.1 (101010) - https://sketch.com -->
    <title>icon/radio_filled</title>
    <desc>Created with sketchtool.</desc>
    <defs>
        <path d="M7,12 C7,14.8 9.2,17 12,17 C14.8,17 17,14.8 17,12 C17,9.2 14.8,7 12,7 C9.2,7 7,9.2 7,12 Z M2,12 C2,17.5 6.5,22 12,22 C17.5,22 22,17.5 22,12 C22,6.5 17.5,2 12,2 C6.5,2 2,6.5 2,12 Z M4,12 C4,7.6 7.6,4 12,4 C16.4,4 20,7.6 20,12 C20,16.4 16.4,20 12,20 C7.6,20 4,16.4 4,12 Z" id="path-1"></path>
    </defs>
    <g id="Icons" stroke="none" stroke-width="1" fill="none" fill-rule="evenodd">
        <g id="icon/radio_filled">
            <mask id="mask-2" fill="white">
                <use xlink:href="#path-1"></use>
            </mask>
            <use id="radio-filled" fill="#404040" xlink:href="#path-1"></use>
        </g>
    </g>
</svg>