<?xml version="1.0" encoding="UTF-8"?>
<svg width="24px" height="24px" viewBox="0 0 24 24" version="1.1" xmlns="http://www.w3.org/2000/svg" xmlns:xlink="http://www.w3.org/1999/xlink">
    <!-- Generator: sketchtool 59.1 (101010) - https://sketch.com -->
    <title>icon/rotate</title>
    <desc>Created with sketchtool.</desc>
    <g id="Icons" stroke="none" stroke-width="1" fill="none" fill-rule="evenodd">
        <g id="icon/rotate" fill="#404040">
            <path d="M20.7769836,14 C19.8675252,18.0079774 16.2831748,21 12,21 C7.02943725,21 3,16.9705627 3,12 C3,7.02943725 7.02943725,3 12,3 C14.4852814,3 16.7352814,4.00735931 18.363961,5.63603897 L21,3 L21,10 L14,10 L16.9497475,7.05025253 C15.6829966,5.78350169 13.9329966,5 12,5 C8.13400675,5 5,8.13400675 5,12 C5,15.8659932 8.13400675,19 12,19 C15.1710206,19 17.8495721,16.8914889 18.7101213,14 L20.7769836,14 L20.7769836,14 Z" id="rotate"></path>
        </g>
    </g>
</svg>