<?xml version="1.0" encoding="UTF-8"?>
<svg width="24px" height="24px" viewBox="0 0 24 24" version="1.1" xmlns="http://www.w3.org/2000/svg" xmlns:xlink="http://www.w3.org/1999/xlink">
    <title>icon/save</title>
    <g id="Icons" stroke="none" stroke-width="1" fill="none" fill-rule="evenodd">
        <g id="icon/save" fill="#404040">
            <path d="M5,3 C3.9057453,3 3,3.9057453 3,5 L3,19 C3,20.094255 3.9057453,21 5,21 L19,21 C20.094255,21 21,20.094255 21,19 L21,7 L17,3 L5,3 Z M5,5 L16.171875,5 L19,7.828125 L19,19 L5,19 L5,5 Z M7,5 L7,11 L17,11 L17,5 L7,5 Z M13,5 L13,9 L15,9 L15,5 L13,5 Z" id="Save"></path>
        </g>
    </g>
</svg>