<?xml version="1.0" encoding="UTF-8"?>
<svg width="24px" height="24px" viewBox="0 0 24 24" version="1.1" xmlns="http://www.w3.org/2000/svg" xmlns:xlink="http://www.w3.org/1999/xlink">
    <!-- Generator: sketchtool 63.1 (101010) - https://sketch.com -->
    <title>icon/selection</title>
    <desc>Created with sketchtool.</desc>
    <g id="Icons" stroke="none" stroke-width="1" fill="none" fill-rule="evenodd">
        <g id="icon/selection" fill="#404040" fill-rule="nonzero">
            <path d="M4,2 C2.895,2 2,2.895 2,4 L2,16 C2,17.105 2.895,18 4,18 L16,18 C17.105,18 18,17.105 18,16 L18,4 C18,2.895 17.105,2 16,2 L4,2 Z M4,4 L16,4 L16,16 L4,16 L4,4 Z M20,6 L20,20 L6,20 L6,22 L20,22 C21.105,22 22,21.105 22,20 L22,6 L20,6 Z M13.2929688,6.2929688 L9,10.585938 L6.7070312,8.2929688 L5.2929688,9.7070312 L9,13.414062 L14.707031,7.7070312 L13.2929688,6.2929688 Z" id="Shape"></path>
        </g>
    </g>
</svg>