<?xml version="1.0" encoding="UTF-8"?>
<svg width="24px" height="24px" viewBox="0 0 24 24" version="1.1" xmlns="http://www.w3.org/2000/svg" xmlns:xlink="http://www.w3.org/1999/xlink">
    <title>icon/sendrequest</title>
    <g id="Icons" stroke="none" stroke-width="1" fill="none" fill-rule="evenodd" fill-opacity="0.87">
        <g id="Icon" fill="#404040" transform="translate(2.500000, 2.500000)">
            <path d="M9.5,0 L18.0573113,5.9347631 C18.6408283,6.27498967 19,6.90000083 19,7.5753 L19,7.5753 L19,17.1 C19,18.1490705 18.1490705,19 17.1,19 L17.1,19 L1.9,19 C0.850929488,19 0,18.1490705 0,17.1 L0,17.1 L0,7.5753 C0,6.90000083 0.359171682,6.27498967 0.942498528,5.93487404 L0.942498528,5.93487404 L9.5,0 Z M17.1,9.689 L9.5,14.4188889 L1.899,9.689 L1.9,17.1 L17.1,17.1 L17.1,9.689 Z M9.5,2.85 L1.999,7.514 L9.5,12.17995 L17.001,7.513 L9.5,2.85 Z M9.5,4.75 L12.35,7.6 L10.449,7.599 L10.45,9.8591 L9.5,10.45 L8.55,9.8591 L8.549,7.599 L6.65,7.6 L9.5,4.75 Z" id="Path-2"></path>
        </g>
    </g>
</svg>