<?xml version="1.0" encoding="UTF-8"?>
<svg width="24px" height="24px" viewBox="0 0 24 24" version="1.1" xmlns="http://www.w3.org/2000/svg" xmlns:xlink="http://www.w3.org/1999/xlink">
    <!-- Generator: sketchtool 59.1 (101010) - https://sketch.com -->
    <title>icon/sort_down</title>
    <desc>Created with sketchtool.</desc>
    <g id="Icons" stroke="none" stroke-width="1" fill="none" fill-rule="evenodd">
        <g id="icon/sort_down" fill="#404040">
            <g id="Group" transform="translate(1.000000, 5.000000)">
                <path d="M12,12 L16,12 L16,14 L12,14 L12,12 Z M12,8 L18,8 L18,10 L12,10 L12,8 Z M12,4 L20,4 L20,6 L12,6 L12,4 Z M12,0 L22,0 L22,2 L12,2 L12,0 Z" id="filter"></path>
                <path d="M6,8 L6,3 L4,3 L4,8 L2.5,8 L5,10.5 L7.5,8 L6,8 Z M7,7 L10,7 L5,12 L0,7 L3,7 L3,2 L7,2 L7,7 Z" id="arrow-down"></path>
            </g>
        </g>
    </g>
</svg>