<?xml version="1.0" encoding="UTF-8"?>
<svg width="24px" height="24px" viewBox="0 0 24 24" version="1.1" xmlns="http://www.w3.org/2000/svg" xmlns:xlink="http://www.w3.org/1999/xlink">
    <!-- Generator: sketchtool 59.1 (101010) - https://sketch.com -->
    <title>icon/undo</title>
    <desc>Created with sketchtool.</desc>
    <g id="Icons" stroke="none" stroke-width="1" fill="none" fill-rule="evenodd">
        <g id="icon/undo" fill="#404040" fill-rule="nonzero">
            <path d="M6.54938257,10.5777049 C11.2184464,6.09932083 14.3657429,5.58674095 16.9624992,6.22328842 C20.5116563,7.09329955 21.6329175,9.42537675 22,11.3935034 C18.9254745,9.04052576 16.3722757,8.10662072 10.2383201,14.3977115 L14.0382912,18.3326968 L2,18.7557732 L2.84294902,6.73958059 L6.54938257,10.5777049 L6.54938257,10.5777049 Z M4.3345828,10.857445 L3.90537464,16.8844096 L9.94807063,16.6677352 L7.75414749,14.424089 C9.81217507,12.4639343 11.3156083,11.1204294 12.2644473,10.3935743 C13.6877056,9.30329165 15.7474358,7.94425912 19.0082148,8.66191155 C17.1992326,7.1717457 15.6017007,6.93488422 13.3030926,7.91851148 C11.0044844,8.90213874 8.82140403,10.857445 6.52018744,13.1144026 L4.3345828,10.857445 Z" id="undo"></path>
        </g>
    </g>
</svg>