<?xml version="1.0" encoding="UTF-8"?>
<svg width="24px" height="24px" viewBox="0 0 24 24" version="1.1" xmlns="http://www.w3.org/2000/svg" xmlns:xlink="http://www.w3.org/1999/xlink">
    <!-- Generator: sketchtool 59.1 (101010) - https://sketch.com -->
    <title>icon/view_columns</title>
    <desc>Created with sketchtool.</desc>
    <defs>
        <path d="M5,5 L19,5 C20.1045695,5 21,5.78350169 21,6.75 L21,17.25 C21,18.2164983 20.1045695,19 19,19 L5,19 C3.8954305,19 3,18.2164983 3,17.25 L3,6.75 C3,5.78350169 3.8954305,5 5,5 M5,9 L5,12 L11,12 L11,9 L5,9 M13,9 L13,12 L19,12 L19,9 L13,9 M5,14 L5,17 L11,17 L11,14 L5,14 M13,14 L13,17 L19,17 L19,14 L13,14 Z" id="path-1"></path>
    </defs>
    <g id="Icons" stroke="none" stroke-width="1" fill="none" fill-rule="evenodd">
        <g id="icon/view_columns">
            <mask id="mask-2" fill="white">
                <use xlink:href="#path-1"></use>
            </mask>
            <use id="Shape" fill="#404040" fill-rule="nonzero" xlink:href="#path-1"></use>
        </g>
    </g>
</svg>