<?xml version="1.0" encoding="UTF-8"?>
<svg width="24px" height="24px" viewBox="0 0 24 24" version="1.1" xmlns="http://www.w3.org/2000/svg" xmlns:xlink="http://www.w3.org/1999/xlink">
    <!-- Generator: sketchtool 63.1 (101010) - https://sketch.com -->
    <title>icon/view_list</title>
    <desc>Created with sketchtool.</desc>
    <defs>
        <path d="M3,7 L3,17 C3,18.1045695 3.8954305,19 5,19 L19,19 C20.1045695,19 21,18.1045695 21,17 L21,7 C21,5.8954305 20.1045695,5 19,5 L5,5 C3.8954305,5 3,5.8954305 3,7 Z M7,7 L7,9 L5,9 L5,7 L7,7 Z M5,13 L5,11 L7,11 L7,13 L5,13 Z M5,15 L7,15 L7,17 L5,17 L5,15 Z M19,17 L9,17 L9,15 L19,15 L19,17 Z M19,13 L9,13 L9,11 L19,11 L19,13 Z M19,9 L9,9 L9,7 L19,7 L19,9 Z" id="path-1"></path>
    </defs>
    <g id="Icons" stroke="none" stroke-width="1" fill="none" fill-rule="evenodd">
        <g id="icon/view_list">
            <mask id="mask-2" fill="white">
                <use xlink:href="#path-1"></use>
            </mask>
            <use id="Shape" fill="#404040" fill-rule="nonzero" xlink:href="#path-1"></use>
        </g>
    </g>
</svg>