<?xml version="1.0" encoding="UTF-8"?>
<svg width="24px" height="24px" viewBox="0 0 24 24" version="1.1" xmlns="http://www.w3.org/2000/svg" xmlns:xlink="http://www.w3.org/1999/xlink">
    <!-- Generator: sketchtool 55.2 (78181) - https://sketchapp.com -->
    <title>icon/view</title>
    <desc>Created with sketchtool.</desc>
    <g id="Icons" stroke="none" stroke-width="1" fill="none" fill-rule="evenodd">
        <g id="icon/view" fill="#404040">
            <path d="M1,1.93820892 C1,1.42005044 1.42022705,1 1.93820892,1 L17.0617911,1 C17.5799496,1 18,1.42022705 18,1.93820892 L18,17.0617911 C18,17.5799496 17.5797729,18 17.0617911,18 L1.93820892,18 C1.42005044,18 1,17.5797729 1,17.0617911 L1,1.93820892 Z M2.88888889,2.88888889 L2.88888889,16.1111111 L5.69057604,16.1111111 L5.69057604,18 L17,18 C17.5522847,18 18,17.5522847 18,17 L18,5.70727709 L16.1111111,5.70727709 L16.1111111,2.88888889 L2.88888889,2.88888889 Z" id="Shape"></path>
            <path d="M22.842847,21.2715013 L21.8853633,22.4698671 L18.020654,19.1472273 C16.9696826,19.9590471 15.651753,20.4420324 14.2210162,20.4420324 C10.7852438,20.4420324 8,17.6567886 8,14.2210162 C8,10.7852438 10.7852438,8 14.2210162,8 C17.6567886,8 20.4420324,10.7852438 20.4420324,14.2210162 C20.4420324,15.6259497 19.9763113,16.9221081 19.1908291,17.9635315 L22.842847,21.2715013 Z M14.2210162,18.7830948 C16.7405826,18.7830948 18.7830948,16.7405826 18.7830948,14.2210162 C18.7830948,11.7014498 16.7405826,9.65893766 14.2210162,9.65893766 C11.7014498,9.65893766 9.65893766,11.7014498 9.65893766,14.2210162 C9.65893766,16.7405826 11.7014498,18.7830948 14.2210162,18.7830948 Z" id="search"></path>
        </g>
    </g>
</svg>