<?xml version="1.0" encoding="UTF-8"?>
<svg width="24px" height="24px" viewBox="0 0 24 24" version="1.1" xmlns="http://www.w3.org/2000/svg" xmlns:xlink="http://www.w3.org/1999/xlink">
    <title>icon/view_list</title>
    <g id="Icons" stroke="none" stroke-width="1" fill="none" fill-rule="evenodd">
        <g id="icon/view_list" fill="#404040">
            <path d="M5,3 C3.9069372,3 3,3.9069372 3,5 L3,19 C3,20.093063 3.9069372,21 5,21 L19,21 C20.093063,21 21,20.093063 21,19 L21,5 C21,3.9069372 20.093063,3 19,3 L5,3 Z M5,5 L19,5 L19,19 L5,19 L5,5 Z M7,7 L7,9 L17,9 L17,7 L7,7 Z M7,11 L7,13 L13,13 L13,11 L7,11 Z M7,15 L7,17 L17,17 L17,15 L7,15 Z" id="ViewList"></path>
        </g>
    </g>
</svg>