<?xml version="1.0" encoding="UTF-8"?>
<svg width="24px" height="24px" viewBox="0 0 24 24" version="1.1" xmlns="http://www.w3.org/2000/svg" xmlns:xlink="http://www.w3.org/1999/xlink">
    <!-- Generator: sketchtool 55.2 (78181) - https://sketchapp.com -->
    <title>icon/ask_analyst</title>
    <desc>Created with sketchtool.</desc>
    <g id="Icons" stroke="none" stroke-width="1" fill="none" fill-rule="evenodd">
        <g id="icon/ask_analyst" fill="#404040">
            <path d="M11,11 C8.7904,11 7,9.2096 7,7 C7,4.7904 8.7904,3 11,3 C13.2096,3 15,4.7904 15,7 C15,9.2096 13.2096,11 11,11 Z M4,17.40028 C4,14.7965792 7.89640619,13 11.4291538,13 C14.9619015,13 18.8583077,14.7965792 18.8583077,17.40028 C18.8583077,22.2072212 4,22.1925866 4,17.40028 Z M11,9 C12.1048,9 13,8.1048 13,7 C13,5.8952 12.1048,5 11,5 C9.8952,5 9,5.8952 9,7 C9,8.1048 9.8952,9 11,9 Z M6,17.20014 C6,19.5962933 17,19.6036106 17,17.20014 C17,15.8982896 14.115387,15 11.5,15 C8.88461304,15 6,15.8982896 6,17.20014 Z M17.8987692,8.64892308 C17.8987692,8.04584314 17.9719993,7.56554025 18.1184615,7.208 C18.2649238,6.85045975 18.533075,6.49830943 18.9229231,6.15153846 C19.3127712,5.8047675 19.572307,5.52261647 19.7015385,5.30507692 C19.8307699,5.08753737 19.8953846,4.85815505 19.8953846,4.61692308 C19.8953846,3.88891944 19.559388,3.52492308 18.8873846,3.52492308 C18.5686138,3.52492308 18.3133856,3.6229221 18.1216923,3.81892308 C17.929999,4.01492406 17.8298462,4.28522905 17.8212308,4.62984615 L15.9473846,4.62984615 C15.956,3.80707281 16.2219974,3.16307925 16.7453846,2.69784615 C17.2687718,2.23261306 17.9827647,2 18.8873846,2 C19.80062,2 20.5092282,2.22076702 21.0132308,2.66230769 C21.5172333,3.10384836 21.7692308,3.72738059 21.7692308,4.53292308 C21.7692308,4.89907875 21.6873854,5.2447676 21.5236923,5.57 C21.3599992,5.8952324 21.0735405,6.25599802 20.6643077,6.65230769 L20.1409231,7.14984615 C19.8135368,7.46430926 19.6261541,7.83261327 19.5787692,8.25476923 L19.5529231,8.64892308 L17.8987692,8.64892308 Z M17.7113846,10.6326154 C17.7113846,10.3439986 17.8093836,10.1060009 18.0053846,9.91861538 C18.2013856,9.73122983 18.4523062,9.63753846 18.7581538,9.63753846 C19.0640015,9.63753846 19.3149221,9.73122983 19.5109231,9.91861538 C19.7069241,10.1060009 19.8049231,10.3439986 19.8049231,10.6326154 C19.8049231,10.9169245 19.7090779,11.1516914 19.5173846,11.3369231 C19.3256913,11.5221548 19.072617,11.6147692 18.7581538,11.6147692 C18.4436907,11.6147692 18.1906163,11.5221548 17.9989231,11.3369231 C17.8072298,11.1516914 17.7113846,10.9169245 17.7113846,10.6326154 Z" id="ask-analyst"></path>
        </g>
    </g>
</svg>