<?xml version="1.0" encoding="UTF-8"?>
<svg width="24px" height="24px" viewBox="0 0 24 24" version="1.1" xmlns="http://www.w3.org/2000/svg" xmlns:xlink="http://www.w3.org/1999/xlink">
    <!-- Generator: sketchtool 52.5 (67469) - http://www.bohemiancoding.com/sketch -->
    <title>Icon/add</title>
    <desc>Created with sketchtool.</desc>
    <defs>
        <path d="M11,11 L11,8 L13,8 L13,11 L16,11 L16,13 L13,13 L13,16 L11,16 L11,13 L8,13 L8,11 L11,11 Z M5.63603897,18.363961 C2.12132034,14.8492424 2.12132034,9.15075759 5.63603897,5.63603897 C9.15075759,2.12132034 14.8492424,2.12132034 18.363961,5.63603897 C21.8786797,9.15075759 21.8786797,14.8492424 18.363961,18.363961 C14.8492424,21.8786797 9.15075759,21.8786797 5.63603897,18.363961 Z M7.05025253,16.9497475 C9.78392257,19.6834175 14.2160774,19.6834175 16.9497475,16.9497475 C19.6834175,14.2160774 19.6834175,9.78392257 16.9497475,7.05025253 C14.2160774,4.31658249 9.78392257,4.31658249 7.05025253,7.05025253 C4.31658249,9.78392257 4.31658249,14.2160774 7.05025253,16.9497475 Z" id="path-1"></path>
    </defs>
    <g id="Icons" stroke="none" stroke-width="1" fill="none" fill-rule="evenodd">
        <g id="Icon/add">
            <mask id="mask-2" fill="white">
                <use xlink:href="#path-1"></use>
            </mask>
            <use id="Mask" fill="#757575" xlink:href="#path-1"></use>
            <g id="Color-/-Charcoal" mask="url(#mask-2)" fill="#404040">
                <rect id="Rectangle-6" x="0" y="0" width="24" height="24"></rect>
            </g>
        </g>
    </g>
</svg>