<?xml version="1.0" encoding="UTF-8"?>
<svg width="24px" height="24px" viewBox="0 0 24 24" version="1.1" xmlns="http://www.w3.org/2000/svg" xmlns:xlink="http://www.w3.org/1999/xlink">
    <!-- Generator: sketchtool 52.5 (67469) - http://www.bohemiancoding.com/sketch -->
    <title>Icon/add Image</title>
    <desc>Created with sketchtool.</desc>
    <defs>
        <path d="M20,15.0189926 L16.5809502,11.6648795 L12.9824682,15.2102985 L12.9707292,15.2276737 C12.7358622,14.6005237 12.4066283,14.0183921 12,13.498001 L12.0144337,13.499179 L16.5809502,9 L20,12.3831537 L20,6 L4,6 L4,10.7949219 C2.84692383,11.5 2.31469727,12.2328152 2,12.7089233 L2,6 C2,4.66666667 2.66666667,4 4,4 L20,4 C21.3333333,4 22,4.66666667 22,6 L22,17 C22,18.3333333 21.3333333,19 20,19 C15.2467041,19 12.6412964,19 12.1837769,19 C12.4494629,18.5344849 12.8009644,17.8145142 12.8949585,17 C14.7710978,17 17.139445,17 20,17 L20,15.0189926 Z M3,17 L3,15 L6,15 L6,12 L8,12 L8,15 L11,15 L11,17 L8,17 L8,20 L6,20 L6,17 L3,17 Z M8.5,11 C7.67157288,11 7,10.3284271 7,9.5 C7,8.67157288 7.67157288,8 8.5,8 C9.32842712,8 10,8.67157288 10,9.5 C10,10.3284271 9.32842712,11 8.5,11 Z" id="path-1"></path>
    </defs>
    <g id="Icons" stroke="none" stroke-width="1" fill="none" fill-rule="evenodd">
        <g id="Icon/add-Image">
            <mask id="mask-2" fill="white">
                <use xlink:href="#path-1"></use>
            </mask>
            <use id="Combined-Shape" fill="#404040" xlink:href="#path-1"></use>
            <g id="Color-/-Charcoal" mask="url(#mask-2)" fill="#404040">
                <rect id="Rectangle-6" x="0" y="0" width="24" height="24"></rect>
            </g>
        </g>
    </g>
</svg>