<?xml version="1.0" encoding="UTF-8"?>
<svg width="24px" height="24px" viewBox="0 0 24 24" version="1.1" xmlns="http://www.w3.org/2000/svg" xmlns:xlink="http://www.w3.org/1999/xlink">
    <!-- Generator: sketchtool 52.5 (67469) - http://www.bohemiancoding.com/sketch -->
    <title>Icon/add section special</title>
    <desc>Created with sketchtool.</desc>
    <defs>
        <path d="M20,19 C15.2467041,19 12.6412964,19 12.1837769,19 C12.4494629,18.5344849 12.8009644,17.8145142 12.8949585,17 C14.7710978,17 17.139445,17 20,17 L20,6 L4,6 L4,10.7949219 C2.84692383,11.5 2.31469727,12.2328152 2,12.7089233 L2,6 C2,4.66666667 2.66666667,4 4,4 L20,4 C21.3333333,4 22,4.66666667 22,6 L22,17 C22,18.3333333 21.3333333,19 20,19 Z M7.57681815,17.7891259 L4.92904846,19.1811408 L5.43472747,16.2328059 L3.29263679,14.1447836 L6.2529333,13.7146273 L7.57681815,11.0321436 L8.900703,13.7146273 L11.8609995,14.1447836 L9.71890883,16.2328059 L10.2245878,19.1811408 L7.57681815,17.7891259 Z" id="path-1"></path>
    </defs>
    <g id="Icons" stroke="none" stroke-width="1" fill="none" fill-rule="evenodd">
        <g id="Icon/add-section-special">
            <mask id="mask-2" fill="white">
                <use xlink:href="#path-1"></use>
            </mask>
            <use id="Combined-Shape" fill="#404040" xlink:href="#path-1"></use>
            <g id="Color-/-Charcoal" mask="url(#mask-2)" fill="#404040">
                <rect id="Rectangle-6" x="0" y="0" width="24" height="24"></rect>
            </g>
        </g>
    </g>
</svg>