<?xml version="1.0" encoding="UTF-8"?>
<svg width="24px" height="24px" viewBox="0 0 24 24" version="1.1" xmlns="http://www.w3.org/2000/svg" xmlns:xlink="http://www.w3.org/1999/xlink">
    <!-- Generator: sketchtool 53.2 (72643) - https://sketchapp.com -->
    <title>icon/add_section</title>
    <desc>Created with sketchtool.</desc>
    <g id="Icons" stroke="none" stroke-width="1" fill="none" fill-rule="evenodd">
        <g id="icon/add_section" fill="#404040">
            <path d="M20,19 L12.1837769,19 C12.4494629,18.5344849 12.8009644,17.8145142 12.8949585,17 L20,17 L20,6 L4,6 L4,10.7949219 C2.84692383,11.5 2.31469727,12.2328152 2,12.7089233 L2,6 C2,4.66666667 2.66666667,4 4,4 L20,4 C21.3333333,4 22,4.66666667 22,6 L22,17 C22,18.3333333 21.3333333,19 20,19 Z M3,17 L3,15 L6,15 L6,12 L8,12 L8,15 L11,15 L11,17 L8,17 L8,20 L6,20 L6,17 L3,17 Z" id="add-section"></path>
        </g>
    </g>
</svg>