<?xml version="1.0" encoding="UTF-8"?>
<svg width="24px" height="24px" viewBox="0 0 24 24" version="1.1" xmlns="http://www.w3.org/2000/svg" xmlns:xlink="http://www.w3.org/1999/xlink">
    <!-- Generator: sketchtool 52.5 (67469) - http://www.bohemiancoding.com/sketch -->
    <title>icon/advanced_search</title>
    <desc>Created with sketchtool.</desc>
    <g id="Icons" stroke="none" stroke-width="1" fill="none" fill-rule="evenodd">
        <g id="icon/advanced_search" fill="#404040">
            <path d="M17.9562549,17.0340157 L22,21.1935786 L20.2571803,23 L16.2021619,18.8433676 C15.1516174,19.5726121 13.8757196,20 12.5,20 C8.91014913,20 6,17.0898509 6,13.5 C6,9.91014913 8.91014913,7 12.5,7 C16.0898509,7 19,9.91014913 19,13.5 C19,14.8031355 18.616521,16.0167047 17.9562549,17.0340157 Z M8.49644848,6 C7.5491747,6.50671931 6.70909927,7.18765604 6.01903239,8 L2,8 L2,6 L8.49644848,6 Z M16.5035515,6 L22,6 L22,8 L18.9809676,8 C18.2909007,7.18765604 17.4508253,6.50671931 16.5035515,6 Z M4.75173932,10 C4.46692776,10.6295208 4.25658063,11.2999325 4.13193315,12 L2,12 L2,10 L4.75173932,10 Z M4.01446179,14 C4.05461083,14.6921422 4.17757704,15.3620629 4.37359822,16 L2,16 L2,14 L4.01446179,14 Z M2,2 L22,2 L22,4 L2,4 L2,2 Z M12.5,18 C14.9852814,18 17,15.9852814 17,13.5 C17,11.0147186 14.9852814,9 12.5,9 C10.0147186,9 8,11.0147186 8,13.5 C8,15.9852814 10.0147186,18 12.5,18 Z" id="advanced-search"></path>
        </g>
    </g>
</svg>