<?xml version="1.0" encoding="UTF-8"?>
<svg width="24px" height="24px" viewBox="0 0 24 24" version="1.1" xmlns="http://www.w3.org/2000/svg" xmlns:xlink="http://www.w3.org/1999/xlink">
    <!-- Generator: sketchtool 55.1 (78136) - https://sketchapp.com -->
    <title>icon/at</title>
    <desc>Created with sketchtool.</desc>
    <defs>
        <path d="M15.528289,13.3473684 C15.4846624,13.48772 15.4446718,13.6385957 15.4083163,13.8 C15.3719607,13.9614043 15.3537832,14.11228 15.3537832,14.2526316 C15.3537832,14.3929832 15.3828672,14.5087715 15.4410361,14.6 C15.499205,14.6912285 15.593728,14.7368421 15.724608,14.7368421 C16.0299947,14.7368421 16.3390123,14.6421062 16.6516701,14.4526316 C16.9643279,14.2631569 17.2406259,13.9964929 17.4805726,13.6526316 C17.7205193,13.3087702 17.9168363,12.898248 18.0695297,12.4210526 C18.222223,11.9438573 18.2985685,11.4245642 18.2985685,10.8631579 C18.2985685,10.0210484 18.1458775,9.28070495 17.8404908,8.64210526 C17.5351041,8.00350558 17.1170215,7.46316011 16.5862304,7.02105263 C16.0554393,6.57894516 15.4301331,6.24561516 14.7102931,6.02105263 C13.9904531,5.79649011 13.2160914,5.68421053 12.3871847,5.68421053 C11.4564825,5.68421053 10.6094108,5.84210368 9.8459441,6.15789474 C9.08247744,6.47368579 8.43172275,6.90876916 7.89366053,7.46315789 C7.35559831,8.01754663 6.93659467,8.64210526 6.6066803,9.46515728 C6.27676593,10.2882093 6.09406953,11.3052587 6.09406953,12.1894737 C6.09406953,13.1157941 6.21040513,14.0701717 6.53033401,14.8210526 C6.8502629,15.5719336 7.32315184,16.2916777 7.89366053,16.796814 C8.46416922,17.3019502 9.29417889,17.7179072 10,17.9695021 C10.7058211,18.2210971 11.7580261,18.3368421 12.6489434,18.3368421 C13.5398607,18.3368421 14.4339882,18.1859664 15.2556237,17.8842105 C16.0772593,17.5824546 16.77164,17.1578975 17.3387866,16.6105263 L19.1710975,16.6105263 C18.4294441,17.7052686 17.4769429,18.5438567 16.3135651,19.1263158 C15.1501873,19.7087748 13.8087769,20 12.5180641,20 C11.4357605,20 10.2929695,19.9043579 9.20245399,19.5598145 C8.11193848,19.215271 7.10504196,18.638464 6.3717041,18 C5.63836624,17.361536 5.04703695,16.350882 4.61077028,15.3894737 C4.17450361,14.4280654 4,13.2701811 4,12.1473684 C4,11.0385909 4.29447635,9.75288138 4.73074301,8.79147307 C5.16700968,7.83006475 5.8068583,6.97544211 6.56305385,6.27368421 C7.31924941,5.57192632 8.19904065,5.01754589 9.20245399,4.61052632 C10.2058673,4.20350674 11.2747046,4 12.408998,4 C13.3978691,4 14.3503703,4.15438442 15.2665303,4.46315789 C16.1826903,4.77193137 16.9897716,5.203506 17.6877982,5.75789474 C18.3858249,6.31228347 18.9456921,6.98596095 19.3674165,7.77894737 C19.7891409,8.57193379 20,9.45262674 20,10.4210526 C20,11.5017598 19.8000474,12.4280663 19.4001363,13.2 C19.0002252,13.9719337 18.5203391,14.6035063 17.9604635,15.0947368 C17.400588,15.5859674 16.8334498,15.9473673 16.259032,16.1789474 C15.6846143,16.4105275 15.2229056,16.5263158 14.8738923,16.5263158 C14.4085412,16.5263158 14.0340846,16.4140362 13.7505112,16.1894737 C13.4669379,15.9649112 13.3106114,15.6771947 13.2815269,15.3263158 L13.2379005,15.3263158 C12.9761405,15.7473705 12.6344034,16.0561394 12.2126789,16.2526316 C11.7909545,16.4491238 11.3474234,16.5473684 10.8820723,16.5473684 C10.4167211,16.5473684 9.97682552,16.4526325 9.56237219,16.2631579 C9.14791885,16.0736833 8.78436875,15.8140367 8.47171097,15.4842105 C8.1590532,15.1543843 7.91183913,14.771932 7.73006135,14.3368421 C7.54828357,13.9017522 7.45739605,13.4385989 7.45739605,12.9473684 C7.45739605,12.287716 7.57009658,11.6350909 7.79550102,10.9894737 C8.02090547,10.3438564 8.34082956,9.76842358 8.75528289,9.26315789 C9.16973622,8.75789221 9.67143536,8.35087874 10.2603954,8.04210526 C10.8493554,7.73333179 11.50011,7.57894737 12.2126789,7.57894737 C12.67803,7.57894737 13.1579162,7.68771821 13.6523517,7.90526316 C14.1467873,8.12280811 14.5176084,8.50526042 14.7648262,9.05263158 L15.1138378,7.91578947 L16.9025222,7.91578947 L15.528289,13.3473684 Z M9.76501465,13.0880737 C9.76501465,13.6529875 9.91812134,14.1544495 10.2134399,14.4108887 C10.5087585,14.6673279 11,14.7402954 11.4574303,14.7074988 C11.8150022,14.6818619 12.1383362,14.5858459 12.4425049,14.4108887 C12.7466736,14.2359314 13.0738791,13.9561397 13.2927856,13.6524658 C13.5116922,13.348792 13.6349182,13.170105 13.7583008,12.866394 C13.8816833,12.5626831 14,12.1680809 14,11.8008475 C14,11.278246 13.9544678,10.6631165 13.6781616,10.2763062 C13.4018555,9.88949585 13.0013641,9.62799072 12.5510864,9.62799072 C12.1009216,9.62799072 11.6491699,9.7789917 11.3068848,9.97487373 C10.9645996,10.1707558 10.6607056,10.4380188 10.4249268,10.7685547 C10.1891479,11.0990906 10,11.5298157 9.91156006,11.8844604 C9.82312012,12.2391052 9.76501465,12.7372131 9.76501465,13.0880737 Z" id="path-1"></path>
    </defs>
    <g id="Icons" stroke="none" stroke-width="1" fill="none" fill-rule="evenodd">
        <g id="icon/at">
            <mask id="mask-2" fill="white">
                <use xlink:href="#path-1"></use>
            </mask>
            <use id="at" fill="#404040" xlink:href="#path-1"></use>
        </g>
    </g>
</svg>