<?xml version="1.0" encoding="UTF-8"?>
<svg width="24px" height="24px" viewBox="0 0 24 24" version="1.1" xmlns="http://www.w3.org/2000/svg" xmlns:xlink="http://www.w3.org/1999/xlink">
    <!-- Generator: sketchtool 55.2 (78181) - https://sketchapp.com -->
    <title>icon/bell</title>
    <desc>Created with sketchtool.</desc>
    <g id="Icons" stroke="none" stroke-width="1" fill="none" fill-rule="evenodd">
        <g id="icon/bell" fill="#404040" fill-rule="nonzero">
            <path d="M16.8,17 C16.0552609,15.7957056 15.0472922,12.795801 15,8 C15,6.8954305 13.6568542,6 12,6 C10.3431458,6 9,6.8954305 9,8 C9,8.00873051 9.00008391,8.01744795 9.00025122,8.02615199 C9.0000959,8.02730344 9.000012,8.02845866 9,8.02961765 C8.95098952,12.7645176 7.94276526,15.7546451 7.2,17 L5,17 C6.33333333,15.6666667 7,12.3333333 7,7 C7,5.76634108 8.24106202,4.70660151 10.0149451,4.24572582 C10.0050794,4.16519906 10,4.08319271 10,4 C10,2.8954305 10.8954305,2 12,2 C13.1045695,2 14,2.8954305 14,4 C14,4.08319271 13.9949206,4.16519906 13.9850549,4.24572582 C15.758938,4.70660151 17,5.76634108 17,7 C17,12.3807119 17.6666667,15.7140452 19,17 L16.8,17 L16.8,17 Z M5,17 L19,17 C19.5522847,17 20,17.4477153 20,18 C20,18.5522847 19.5522847,19 19,19 L5,19 C4.44771525,19 4,18.5522847 4,18 C4,17.4477153 4.44771525,17 5,17 Z M10,20 L14,20 C14,21.1045695 13.1045695,22 12,22 C10.8954305,22 10,21.1045695 10,20 Z M12,4.5 C12.2761424,4.5 12.5,4.27614237 12.5,4 C12.5,3.72385763 12.2761424,3.5 12,3.5 C11.7238576,3.5 11.5,3.72385763 11.5,4 C11.5,4.27614237 11.7238576,4.5 12,4.5 Z" id="bell"></path>
        </g>
    </g>
</svg>