<?xml version="1.0" encoding="UTF-8"?>
<svg width="24px" height="24px" viewBox="0 0 24 24" version="1.1" xmlns="http://www.w3.org/2000/svg" xmlns:xlink="http://www.w3.org/1999/xlink">
    <!-- Generator: sketchtool 52.5 (67469) - http://www.bohemiancoding.com/sketch -->
    <title>icon/circle_close</title>
    <desc>Created with sketchtool.</desc>
    <g id="Icons" stroke="none" stroke-width="1" fill="none" fill-rule="evenodd">
        <g id="icon/circle_close" fill="#404040">
            <path d="M12,10.5857864 L14.1213203,8.46446609 L15.5355339,9.87867966 L13.4142136,12 L15.5355339,14.1213203 L14.1213203,15.5355339 L12,13.4142136 L9.87867966,15.5355339 L8.46446609,14.1213203 L10.5857864,12 L8.46446609,9.87867966 L9.87867966,8.46446609 L12,10.5857864 Z M5.63603897,18.363961 C2.12132034,14.8492424 2.12132034,9.15075759 5.63603897,5.63603897 C9.15075759,2.12132034 14.8492424,2.12132034 18.363961,5.63603897 C21.8786797,9.15075759 21.8786797,14.8492424 18.363961,18.363961 C14.8492424,21.8786797 9.15075759,21.8786797 5.63603897,18.363961 Z M7.05025253,16.9497475 C9.78392257,19.6834175 14.2160774,19.6834175 16.9497475,16.9497475 C19.6834175,14.2160774 19.6834175,9.78392257 16.9497475,7.05025253 C14.2160774,4.31658249 9.78392257,4.31658249 7.05025253,7.05025253 C4.31658249,9.78392257 4.31658249,14.2160774 7.05025253,16.9497475 Z" id="circle-close"></path>
        </g>
    </g>
</svg>