<?xml version="1.0" encoding="UTF-8"?>
<svg width="24px" height="24px" viewBox="0 0 24 24" version="1.1" xmlns="http://www.w3.org/2000/svg" xmlns:xlink="http://www.w3.org/1999/xlink">
    <!-- Generator: sketchtool 52.5 (67469) - http://www.bohemiancoding.com/sketch -->
    <title>Icon/Clone</title>
    <desc>Created with sketchtool.</desc>
    <defs>
        <path d="M16,6 L14,6 L14,5 L5,5 L5,14 L6,14 L6,16 L3.99850233,16 C3.44704472,16 3,15.5525106 3,15.0014977 L3,3.99850233 C3,3.44704472 3.44748943,3 3.99850233,3 L15.0014977,3 C15.5529553,3 16,3.44748943 16,3.99850233 L16,6 Z M8,8.99850233 C8,8.44704472 8.44748943,8 8.99850233,8 L20.0014977,8 C20.5529553,8 21,8.44748943 21,8.99850233 L21,20.0014977 C21,20.5529553 20.5525106,21 20.0014977,21 L8.99850233,21 C8.44704472,21 8,20.5525106 8,20.0014977 L8,8.99850233 Z M10,10 L10,19 L19,19 L19,10 L10,10 Z" id="path-1"></path>
    </defs>
    <g id="Icons" stroke="none" stroke-width="1" fill="none" fill-rule="evenodd">
        <g id="Icon/Clone">
            <mask id="mask-2" fill="white">
                <use xlink:href="#path-1"></use>
            </mask>
            <use id="Combined-Shape" fill="#757575" xlink:href="#path-1"></use>
            <g id="Color-/-Charcoal" mask="url(#mask-2)" fill="#404040">
                <rect id="Rectangle-6" x="0" y="0" width="24" height="24"></rect>
            </g>
        </g>
    </g>
</svg>