<?xml version="1.0" encoding="UTF-8"?>
<svg width="24px" height="24px" viewBox="0 0 24 24" version="1.1" xmlns="http://www.w3.org/2000/svg" xmlns:xlink="http://www.w3.org/1999/xlink">
    <!-- Generator: sketchtool 52.5 (67469) - http://www.bohemiancoding.com/sketch -->
    <title>Icon/Conference</title>
    <desc>Created with sketchtool.</desc>
    <defs>
        <path d="M5,11 L5,19 L19,19 L19,11 L5,11 Z M14,4 L14,6 L10,6 L10,4 L14,4 Z M19,4 L21,4 L21,11 L21,19.0047705 C21,20.1067053 20.1073772,21 19.0049107,21 L4.99508929,21 C3.8932319,21 3,20.101181 3,19.0047705 L3,11 L3,4 L5,4 L5,7.90909091 L5,9 L19,9 L19,6 L19,4 Z M6.5,3 L8.5,3 L8.5,8 L6.5,8 L6.5,3 Z M15.5,3 L17.5,3 L17.5,8 L15.5,8 L15.5,3 Z" id="path-1"></path>
    </defs>
    <g id="Icons" stroke="none" stroke-width="1" fill="none" fill-rule="evenodd">
        <g id="Icon/Conference">
            <mask id="mask-2" fill="white">
                <use xlink:href="#path-1"></use>
            </mask>
            <use id="Icon-13pt/Conference/G" fill="#757575" xlink:href="#path-1"></use>
            <g id="Color-/-Charcoal" mask="url(#mask-2)" fill="#404040">
                <rect id="Rectangle-6" x="0" y="0" width="24" height="24"></rect>
            </g>
        </g>
    </g>
</svg>