<?xml version="1.0" encoding="UTF-8"?>
<svg width="24px" height="24px" viewBox="0 0 24 24" version="1.1" xmlns="http://www.w3.org/2000/svg" xmlns:xlink="http://www.w3.org/1999/xlink">
    <!-- Generator: sketchtool 52.5 (67469) - http://www.bohemiancoding.com/sketch -->
    <title>Icon/document</title>
    <desc>Created with sketchtool.</desc>
    <defs>
        <path d="M15,2.00841361 L19.9970671,7 L20,7 L20,7.00292969 L20,22 L4,22 L4,2 L14.9915771,2 L15,2 L15,2.00841361 Z M15,5 L15,7 L17,7 L15,5 Z M13,4 L6,4 L6,20 L18,20 L18,9 L15,9 L13,9 L13,4 Z M8,16 L16,16 L16,18 L8,18 L8,16 Z M8,12 L16,12 L16,14 L8,14 L8,12 Z M8,8 L11,8 L11,10 L8,10 L8,8 Z" id="path-1"></path>
    </defs>
    <g id="Icons" stroke="none" stroke-width="1" fill="none" fill-rule="evenodd">
        <g id="Icon/document">
            <mask id="mask-2" fill="white">
                <use xlink:href="#path-1"></use>
            </mask>
            <use id="Icon-13pt/Document/G" fill="#757575" xlink:href="#path-1"></use>
            <g id="Color-/-Charcoal" mask="url(#mask-2)" fill="#404040">
                <rect id="Rectangle-6" x="0" y="0" width="24" height="24"></rect>
            </g>
        </g>
    </g>
</svg>