<?xml version="1.0" encoding="UTF-8"?>
<svg width="24px" height="24px" viewBox="0 0 24 24" version="1.1" xmlns="http://www.w3.org/2000/svg" xmlns:xlink="http://www.w3.org/1999/xlink">
    <!-- Generator: sketchtool 55.1 (78136) - https://sketchapp.com -->
    <title>icon/document</title>
    <desc>Created with sketchtool.</desc>
    <g id="Icons" stroke="none" stroke-width="1" fill="none" fill-rule="evenodd">
        <g id="icon/document" fill="#404040">
            <path d="M15,2.00841361 L19.9970671,7 L20,7 L20,22 L4,22 L4,2 L15,2 L15,2.00841361 Z M15,5 L15,7 L17,7 L15,5 L15,5 Z M13,4 L6,4 L6,20 L18,20 L18,9 L13,9 L13,4 Z M8,16 L16,16 L16,18 L8,18 L8,16 Z M8,12 L16,12 L16,14 L8,14 L8,12 Z M8,8 L11,8 L11,10 L8,10 L8,8 Z" id="document"></path>
        </g>
    </g>
</svg>