<?xml version="1.0" encoding="UTF-8"?>
<svg width="24px" height="24px" viewBox="0 0 24 24" version="1.1" xmlns="http://www.w3.org/2000/svg" xmlns:xlink="http://www.w3.org/1999/xlink">
    <!-- Generator: sketchtool 52.5 (67469) - http://www.bohemiancoding.com/sketch -->
    <title>Icon/edit</title>
    <desc>Created with sketchtool.</desc>
    <defs>
        <path d="M3.00076376,14.4593369 L3,14.036437 C9.86724825,7.15452682 13.3942,3.62024409 13.5808553,3.4335888 C14.1589737,2.8554704 15.3152105,2.8554704 15.8933289,3.4335888 L20.5182761,8.05853601 C21.0963945,8.63665441 21.0963945,9.79289121 20.5182761,10.3710096 L9.89471888,20.9945669 L9.54066306,20.9953897 L9.54066306,21 L3,21 L3,14.4593369 Z M4.63516577,14.6917519 L4.63516577,18.1384599 L5.86154009,19.3648342 L9.1952719,19.3648342 L17.0484929,11.5261736 L12.4246185,6.90229921 L13.5808553,5.7460624 L18.2058025,10.3710096 C18.9766271,9.60018508 19.3582295,9.21599954 19.3506097,9.21845301 L14.7343903,4.60108581 C14.3438951,4.98587536 13.9607008,5.36621689 13.5848073,5.74211042 L4.63516577,14.6917519 Z" id="path-1"></path>
    </defs>
    <g id="Icons" stroke="none" stroke-width="1" fill="none" fill-rule="evenodd">
        <g id="Icon/edit">
            <mask id="mask-2" fill="white">
                <use xlink:href="#path-1"></use>
            </mask>
            <use id="Combined-Shape" fill="#757575" xlink:href="#path-1"></use>
            <g id="Color-/-Charcoal" mask="url(#mask-2)" fill="#404040">
                <rect id="Rectangle-6" x="0" y="0" width="24" height="24"></rect>
            </g>
        </g>
    </g>
</svg>