<?xml version="1.0" encoding="UTF-8"?>
<svg width="24px" height="24px" viewBox="0 0 24 24" version="1.1" xmlns="http://www.w3.org/2000/svg" xmlns:xlink="http://www.w3.org/1999/xlink">
    <!-- Generator: sketchtool 55.1 (78136) - https://sketchapp.com -->
    <title>icon/email</title>
    <desc>Created with sketchtool.</desc>
    <g id="Icons" stroke="none" stroke-width="1" fill="none" fill-rule="evenodd">
        <g id="icon/email" fill="#404040">
            <path d="M7.11228442,9.33397332 C7.38446925,8.5569205 8.12208363,8 8.99961498,8 L15.000385,8 C15.872854,8 16.6148164,8.55342777 16.8879373,9.33385239 L12,12 L7.11228442,9.33397332 L7.11228442,9.33397332 Z M8.99961498,8 L15.000385,8 L8.99961498,8 Z M17,11.2727273 L17,14.0018986 C17,15.1054196 16.1125667,16 15.000385,16 L8.99961498,16 C7.89525812,16 7,15.1132936 7,14.0018986 L7,11.2727273 L12,14 L17,11.2727273 L17,11.2727273 Z M12,21 C7.02943725,21 3,16.9705627 3,12 C3,7.02943725 7.02943725,3 12,3 C16.9705627,3 21,7.02943725 21,12 C21,16.9705627 16.9705627,21 12,21 Z M12,19 C15.8659932,19 19,15.8659932 19,12 C19,8.13400675 15.8659932,5 12,5 C8.13400675,5 5,8.13400675 5,12 C5,15.8659932 8.13400675,19 12,19 Z" id="email"></path>
        </g>
    </g>
</svg>