<?xml version="1.0" encoding="UTF-8"?>
<svg width="24px" height="24px" viewBox="0 0 24 24" version="1.1" xmlns="http://www.w3.org/2000/svg" xmlns:xlink="http://www.w3.org/1999/xlink">
    <!-- Generator: sketchtool 55.1 (78136) - https://sketchapp.com -->
    <title>icon/expert_tag</title>
    <desc>Created with sketchtool.</desc>
    <g id="Icons" stroke="none" stroke-width="1" fill="none" fill-rule="evenodd">
        <g id="icon/expert_tag" fill="#404040">
            <g id="Group" transform="translate(4.000000, 4.000000)">
                <path d="M10.8193459,7.26031028 L10.9375,6 L5.9375,6 L5.5625,10 L7.60160828,10 C7.25350444,10.7102865 7.06387838,11.3769531 7.0327301,12 L5.375,12 L5,16 L3,16 L3.375,12 L0,12 L0,10 L3.5625,10 L3.9375,6 L1,6 L1,4 L4.125,4 L4.5,0 L6.5,0 L6.125,4 L11.125,4 L11.5,0 L13.5,0 L13.125,4 L16,4 L16,6 L12.9375,6 L12.9375,7.01971436 C12.4211026,7.00701117 12.0393587,7.01590327 11.7922684,7.04639064 C11.5465347,7.07671063 11.2222272,7.14801718 10.8193459,7.26031029 Z" id="Hashtag"></path>
                <polygon id="Path" points="12.2841814 14.7569823 9.63641166 16.1489972 10.1420907 13.2006623 8 11.11264 10.9602965 10.6824837 12.2841814 8 13.6080662 10.6824837 16.5683627 11.11264 14.426272 13.2006623 14.9319511 16.1489972"></polygon>
            </g>
        </g>
    </g>
</svg>