<?xml version="1.0" encoding="UTF-8"?>
<svg width="24px" height="24px" viewBox="0 0 24 24" version="1.1" xmlns="http://www.w3.org/2000/svg" xmlns:xlink="http://www.w3.org/1999/xlink">
    <!-- Generator: sketchtool 52.5 (67469) - http://www.bohemiancoding.com/sketch -->
    <title>Icon/Funding</title>
    <desc>Created with sketchtool.</desc>
    <defs>
        <path d="M16.4899345,7.06075185 C20.3885227,10.1145696 22.9189104,21 19.4018367,21 L4.67456398,21 C1.1575967,21 3.68772485,10.1152282 7.58611234,7.06102903 C5.79887495,5.65635588 4.50536035,3 6.31092761,3 L17.7272727,3 C19.5608196,3 18.2750244,5.65600647 16.4899345,7.06075185 Z M14.0836549,6.27272727 C15.3109276,6.27272727 16.9472912,4.63636364 16.1291094,4.63636364 L7.94729125,4.63636364 C7.12910943,4.63636364 8.76547307,6.27272727 9.99274579,6.27272727 L14.0836549,6.27272727 Z M9.58365488,7.90909091 C6.31092761,7.90909091 3.03820034,19.3636364 5.49274579,19.3636364 L18.5836549,19.3636364 C21.0382003,19.3636364 17.7654731,7.90909091 14.4927458,7.90909091 L9.58365488,7.90909091 Z M13.24866,15.1549003 C13.24866,14.9199804 13.1587344,14.7327787 12.9788831,14.593295 C12.8000422,14.4545455 12.4949013,14.3260737 12.0644707,14.2086137 C11.6340402,14.0911538 11.2632232,13.974428 10.9520199,13.8577022 C10.6398062,13.7417105 10.3720501,13.608834 10.149762,13.4576043 C9.92646353,13.3071088 9.75267466,13.1301848 9.62839541,12.9268323 C9.50411617,12.7227456 9.44147134,12.4804845 9.44147134,12.2000489 C9.44147134,11.7147926 9.65466582,11.3176312 10.0810548,11.0085648 C10.5074438,10.6987642 11.0742784,10.5181696 11.7805482,10.4660467 L11.7805482,9.54545455 L12.7272934,9.54545455 L12.7272934,10.479261 C13.4264905,10.5512052 13.9731171,10.7626331 14.3681836,11.1135446 C14.7632502,11.4651903 14.9602783,11.9203475 14.9602783,12.4790163 L13.24866,12.4790163 C13.24866,12.135446 13.1506512,11.8777683 12.9556439,11.7074514 C12.7606366,11.5364003 12.4989429,11.4512419 12.1715732,11.4512419 C11.8472347,11.4512419 11.5966554,11.5180472 11.4188249,11.6516579 C11.2420048,11.7845344 11.1530896,11.9687997 11.1530896,12.2037196 C11.1530896,12.4217546 11.239984,12.5972103 11.4137729,12.7286186 C11.5865514,12.860761 11.9098795,12.99584 12.3817365,13.1331213 C12.8525831,13.2711367 13.2405768,13.4003426 13.5447073,13.5222073 C13.8488378,13.6440719 14.1054795,13.7820874 14.3146324,13.9355194 C14.5237853,14.0889514 14.6834286,14.2636731 14.7945726,14.4604185 C14.9047062,14.6564297 14.9602783,14.8854766 14.9602783,15.1460908 C14.9602783,15.6335495 14.7511254,16.0292426 14.3328196,16.3331702 C13.9135035,16.6378319 13.3375752,16.8169583 12.6030142,16.8712835 L12.6030142,17.7272727 L11.6623314,17.7272727 L11.6623314,16.8756882 C10.8530007,16.8125535 10.2265524,16.6040622 9.78197627,16.24948 C9.3384105,15.895632 9.11612242,15.424324 9.11612242,14.8362902 L10.8277407,14.8362902 C10.8277407,15.1776581 10.9388847,15.4397406 11.1621832,15.6218035 C11.3844713,15.8038664 11.7057786,15.8948978 12.1240844,15.8948978 C12.4706517,15.8948978 12.7454806,15.8280925 12.9465503,15.6944818 C13.14762,15.5616053 13.24866,15.3817448 13.24866,15.1549003 Z" id="path-1"></path>
    </defs>
    <g id="Icons" stroke="none" stroke-width="1" fill="none" fill-rule="evenodd">
        <g id="Icon/Funding">
            <mask id="mask-2" fill="white">
                <use xlink:href="#path-1"></use>
            </mask>
            <use id="Funding" fill="#757575" opacity="0.9" xlink:href="#path-1"></use>
            <g id="Color-/-Charcoal" mask="url(#mask-2)" fill="#404040">
                <rect id="Rectangle-6" x="0" y="0" width="24" height="24"></rect>
            </g>
        </g>
    </g>
</svg>