<?xml version="1.0" encoding="UTF-8"?>
<svg width="24px" height="24px" viewBox="0 0 24 24" version="1.1" xmlns="http://www.w3.org/2000/svg" xmlns:xlink="http://www.w3.org/1999/xlink">
    <!-- Generator: sketchtool 55.1 (78136) - https://sketchapp.com -->
    <title>icon/hashtag</title>
    <desc>Created with sketchtool.</desc>
    <g id="Icons" stroke="none" stroke-width="1" fill="none" fill-rule="evenodd">
        <g id="icon/hashtag" fill="#404040">
            <path d="M7.5625,14 L7.9375,10 L5,10 L5,8 L8.125,8 L8.5,4 L10.5,4 L10.125,8 L15.125,8 L15.5,4 L17.5,4 L17.125,8 L20,8 L20,10 L16.9375,10 L16.5625,14 L19,14 L19,16 L16.375,16 L16,20 L14,20 L14.375,16 L9.375,16 L9,20 L7,20 L7.375,16 L4,16 L4,14 L7.5625,14 Z M9.5625,14 L14.5625,14 L14.9375,10 L9.9375,10 L9.5625,14 Z" id="Hashtag"></path>
        </g>
    </g>
</svg>