<?xml version="1.0" encoding="UTF-8"?>
<svg width="24px" height="24px" viewBox="0 0 24 24" version="1.1" xmlns="http://www.w3.org/2000/svg" xmlns:xlink="http://www.w3.org/1999/xlink">
    <!-- Generator: sketchtool 55.1 (78136) - https://sketchapp.com -->
    <title>icon/hide</title>
    <desc>Created with sketchtool.</desc>
    <g id="Icons" stroke="none" stroke-width="1" fill="none" fill-rule="evenodd">
        <g id="icon/hide" fill="#404040">
            <path d="M8.10025526,17.8139583 C9.21470183,18.562957 10.5563125,19 12,19 C15.8659932,19 19,15.8659932 19,12 C19,10.5563125 18.562957,9.21470183 17.8139583,8.10025526 L8.10025526,17.8139583 L8.10025526,17.8139583 Z M6.61416894,16.4716175 L16.4716175,6.61416894 C15.2588686,5.60616298 13.7002228,5 12,5 C8.13400675,5 5,8.13400675 5,12 C5,13.7002228 5.60616298,15.2588686 6.61416894,16.4716175 Z M12,21 C7.02943725,21 3,16.9705627 3,12 C3,7.02943725 7.02943725,3 12,3 C16.9705627,3 21,7.02943725 21,12 C21,16.9705627 16.9705627,21 12,21 Z" id="hide"></path>
        </g>
    </g>
</svg>