<?xml version="1.0" encoding="UTF-8"?>
<svg width="24px" height="24px" viewBox="0 0 24 24" version="1.1" xmlns="http://www.w3.org/2000/svg" xmlns:xlink="http://www.w3.org/1999/xlink">
    <!-- Generator: sketchtool 55.1 (78136) - https://sketchapp.com -->
    <title>icon/home</title>
    <desc>Created with sketchtool.</desc>
    <g id="Icons" stroke="none" stroke-width="1" fill="none" fill-rule="evenodd">
        <g id="icon/home" fill="#404040">
            <path d="M14.0092163,5.71307373 L14,3 L20.0307617,3 L20.0307617,9.13842773 L21,9.70013428 L21,12 L12.0162308,6.85424805 L3,12.1000004 L3,9.76513672 L12.0162308,4.55578613 L14.0092163,5.71307373 Z M18,7.99841309 L18,5 L16,5 L16,6.8291626 L18,7.99841309 Z M5,13.3272829 L7,12.1999998 L7,19 L9,19 L9,13 L15,13 L15,19 L17,19 L17,12.1999998 L19,13.3272829 L19,21 L13,21 L13,15 L11,15 L11,21 L5,21 L5,13.3272829 Z" id="home"></path>
        </g>
    </g>
</svg>