<?xml version="1.0" encoding="UTF-8"?>
<svg width="24px" height="24px" viewBox="0 0 24 24" version="1.1" xmlns="http://www.w3.org/2000/svg" xmlns:xlink="http://www.w3.org/1999/xlink">
    <!-- Generator: sketchtool 55.1 (78136) - https://sketchapp.com -->
    <title>icon/investor</title>
    <desc>Created with sketchtool.</desc>
    <g id="Icons" stroke="none" stroke-width="1" fill="none" fill-rule="evenodd">
        <g id="icon/investor" fill="#404040">
            <path d="M18,7 L20.0066023,7 C20.5552407,7 21,7.44994876 21,8.00684547 L21,19.9931545 C21,20.5492199 20.5550537,21 20.0066023,21 L3.99339768,21 C3.44475929,21 3,20.5500512 3,19.9931545 L3,8.00684547 C3,7.45078007 3.44494629,7 3.99339768,7 L6,7 L6,5.00585866 C6,3.89805351 6.90195036,3 8.0085302,3 L15.9914698,3 C17.1007504,3 18,3.89706013 18,5.00585866 L18,7 Z M8,7 L16,7 L16,5 L8,5 L8,7 Z M5,9 L5,19 L19,19 L19,9 L5,9 Z" id="investor"></path>
        </g>
    </g>
</svg>