<?xml version="1.0" encoding="UTF-8"?>
<svg width="24px" height="24px" viewBox="0 0 24 24" version="1.1" xmlns="http://www.w3.org/2000/svg" xmlns:xlink="http://www.w3.org/1999/xlink">
    <!-- Generator: sketchtool 52.5 (67469) - http://www.bohemiancoding.com/sketch -->
    <title>Icon/Investor</title>
    <desc>Created with sketchtool.</desc>
    <defs>
        <path d="M18,7 L20.0066023,7 C20.5552407,7 21,7.44994876 21,8.00684547 L21,19.9931545 C21,20.5492199 20.5550537,21 20.0066023,21 L3.99339768,21 C3.44475929,21 3,20.5500512 3,19.9931545 L3,8.00684547 C3,7.45078007 3.44494629,7 3.99339768,7 L6,7 L6,5.00585866 C6,3.89805351 6.90195036,3 8.0085302,3 L15.9914698,3 C17.1007504,3 18,3.89706013 18,5.00585866 L18,7 Z M8,7 L16,7 L16,5 L8,5 L8,7 Z M5,9 L5,19 L19,19 L19,9 L5,9 Z" id="path-1"></path>
    </defs>
    <g id="Icons" stroke="none" stroke-width="1" fill="none" fill-rule="evenodd">
        <g id="Icon/Investor">
            <mask id="mask-2" fill="white">
                <use xlink:href="#path-1"></use>
            </mask>
            <use id="Icon-13pt/Investor/G" fill="#757575" opacity="0.9" xlink:href="#path-1"></use>
            <g id="Color-/-Charcoal" mask="url(#mask-2)" fill="#404040">
                <rect id="Rectangle-6" x="0" y="0" width="24" height="24"></rect>
            </g>
        </g>
    </g>
</svg>