<?xml version="1.0" encoding="UTF-8"?>
<svg width="24px" height="24px" viewBox="0 0 24 24" version="1.1" xmlns="http://www.w3.org/2000/svg" xmlns:xlink="http://www.w3.org/1999/xlink">
    <!-- Generator: sketchtool 52.5 (67469) - http://www.bohemiancoding.com/sketch -->
    <title>icon/line</title>
    <desc>Created with sketchtool.</desc>
    <g id="Icons" stroke="none" stroke-width="1" fill="none" fill-rule="evenodd">
        <g id="icon/line" fill="#404040">
            <path d="M16.7065845,8.70762901 L8.70762901,16.7065845 C8.89504784,17.0982198 9,17.5368535 9,18 C9,19.6568542 7.65685425,21 6,21 C4.34314575,21 3,19.6568542 3,18 C3,16.3431458 4.34314575,15 6,15 C6.46314653,15 6.90178018,15.1049522 7.29341545,15.292371 L15.292371,7.29341545 C15.1049522,6.90178018 15,6.46314653 15,6 C15,4.34314575 16.3431458,3 18,3 C19.6568542,3 21,4.34314575 21,6 C21,7.65685425 19.6568542,9 18,9 C17.5368535,9 17.0982198,8.89504784 16.7065845,8.70762901 Z M6,19.25 C6.69035594,19.25 7.25,18.6903559 7.25,18 C7.25,17.3096441 6.69035594,16.75 6,16.75 C5.30964406,16.75 4.75,17.3096441 4.75,18 C4.75,18.6903559 5.30964406,19.25 6,19.25 Z M18,7.25 C18.6903559,7.25 19.25,6.69035594 19.25,6 C19.25,5.30964406 18.6903559,4.75 18,4.75 C17.3096441,4.75 16.75,5.30964406 16.75,6 C16.75,6.69035594 17.3096441,7.25 18,7.25 Z" id="line"></path>
        </g>
    </g>
</svg>