<?xml version="1.0" encoding="UTF-8"?>
<svg width="24px" height="24px" viewBox="0 0 24 24" version="1.1" xmlns="http://www.w3.org/2000/svg" xmlns:xlink="http://www.w3.org/1999/xlink">
    <!-- Generator: sketchtool 55.1 (78136) - https://sketchapp.com -->
    <title>icon/linkedin</title>
    <desc>Created with sketchtool.</desc>
    <g id="Icons" stroke="none" stroke-width="1" fill="none" fill-rule="evenodd">
        <g id="icon/linkedin" fill="#404040">
            <path d="M12,21 C7.02943725,21 3,16.9705627 3,12 C3,7.02943725 7.02943725,3 12,3 C16.9705627,3 21,7.02943725 21,12 C21,16.9705627 16.9705627,21 12,21 Z M12,19 C15.8659932,19 19,15.8659932 19,12 C19,8.13400675 15.8659932,5 12,5 C8.13400675,5 5,8.13400675 5,12 C5,15.8659932 8.13400675,19 12,19 Z M9.74093444,10.8222317 L9.74093444,15.9967041 L8.01785078,15.9967041 L8.01785078,10.8222317 L9.74093444,10.8222317 Z M9.94979306,8.87382765 C9.95327406,9.12794025 9.86538027,9.34027773 9.68610905,9.51084646 C9.50683783,9.68141519 9.271004,9.76669827 8.97860046,9.76669827 L8.96815753,9.76669827 C8.68271598,9.76669827 8.45297379,9.68141519 8.27892406,9.51084646 C8.10487434,9.34027773 8.01785078,9.12794025 8.01785078,8.87382765 C8.01785078,8.61623406 8.10748505,8.40302635 8.28675626,8.23419811 C8.46602748,8.06536988 8.70012085,7.98095703 8.98904339,7.98095703 C9.27796593,7.98095703 9.50944859,8.06536988 9.68349832,8.23419811 C9.85754804,8.40302635 9.94631207,8.61623406 9.94979306,8.87382765 Z M15.9388141,12.9831211 L15.9388141,15.9489136 L14.2209519,15.9489136 L14.2209519,13.1815368 C14.2209519,12.8160324 14.1504629,12.5297249 14.0094826,12.3226057 C13.8685023,12.1154865 13.6483327,12.0119285 13.3489672,12.0119285 C13.1296645,12.0119285 12.9460448,12.0719747 12.7981026,12.1920691 C12.6501603,12.3121634 12.5396404,12.4609736 12.4665395,12.6385044 C12.4282486,12.7429342 12.4091034,12.8839124 12.4091034,13.0614431 L12.4091034,15.9489136 L10.6912412,15.9489136 C10.6982032,14.5599968 10.7016841,13.4339119 10.7016841,12.5706253 C10.7016841,11.7073387 10.6999436,11.1921592 10.6964626,11.0250715 L10.6912412,10.7744411 L12.4091034,10.7744411 L12.4091034,11.5263322 L12.3986604,11.5263322 C12.4682803,11.4149404 12.5396396,11.317474 12.6127405,11.2339301 C12.6858414,11.1503862 12.784178,11.0598817 12.9077533,10.9624139 C13.0313286,10.8649461 13.1827496,10.7892356 13.3620209,10.7352801 C13.5412921,10.6813247 13.740576,10.6543474 13.9598787,10.6543474 C14.5551287,10.6543474 15.0337583,10.8518909 15.3957817,11.2469838 C15.7578051,11.6420767 15.9388141,12.2207833 15.9388141,12.9831211 Z" id="linkedin"></path>
        </g>
    </g>
</svg>