<?xml version="1.0" encoding="UTF-8"?>
<svg width="24px" height="24px" viewBox="0 0 24 24" version="1.1" xmlns="http://www.w3.org/2000/svg" xmlns:xlink="http://www.w3.org/1999/xlink">
    <!-- Generator: sketchtool 52.5 (67469) - http://www.bohemiancoding.com/sketch -->
    <title>Icon/Link</title>
    <desc>Created with sketchtool.</desc>
    <defs>
        <path d="M13.8386841,13 C13.9467977,12.9079183 14.0008545,12.574585 14.0008545,12 C14.0008545,11.1381226 13.3661499,9 10.9969482,9 C8.79359613,9 8.20384829,9 6.00085449,9 C4.96728516,9 3.00085449,9.72833252 3.00085449,12 C3.00085449,14.2716675 4.99749756,15 6.00085449,15 C7.00421143,15 6.60791016,15 7.00085449,15 C7.57458496,15.8620605 8.24257406,16.5287272 9.00482178,17 C7.90698793,17 6.9056655,17 6.00085449,17 C4.09259033,17 1,15.4802246 1,12 C1,8.51977539 4.09448242,7 6.00085449,7 C8.20795826,7 7.99304199,7 10.9969482,7 C15.5348511,7 15.9980469,11.3609619 15.9980469,12 C15.9980469,12.4260254 15.9578451,12.7593587 15.8774414,13 L13.8386841,13 Z M10.1593628,11 C10.0512492,11.0920817 9.99719238,11.425415 9.99719238,12 C9.99719238,12.8618774 10.631897,15 13.0010986,15 C15.2044507,15 15.7941986,15 17.9971924,15 C19.0307617,15 20.9971924,14.2716675 20.9971924,12 C20.9971924,9.72833252 19.0005493,9 17.9971924,9 C16.9938354,9 17.3901367,9 16.9971924,9 C16.4234619,8.13793945 15.7554728,7.47127279 14.9932251,7 C16.0910589,7 17.0923814,7 17.9971924,7 C19.9054565,7 22.9980469,8.51977539 22.9980469,12 C22.9980469,15.4802246 19.9035645,17 17.9971924,17 C15.7900886,17 16.0050049,17 13.0010986,17 C8.4631958,17 8,12.6390381 8,12 C8,11.5739746 8.04020182,11.2406413 8.12060547,11 L10.1593628,11 Z" id="path-1"></path>
    </defs>
    <g id="Icons" stroke="none" stroke-width="1" fill="none" fill-rule="evenodd">
        <g id="Icon/Link">
            <mask id="mask-2" fill="white">
                <use xlink:href="#path-1"></use>
            </mask>
            <use id="Combined-Shape" fill="#404040" transform="translate(11.999023, 12.000000) scale(1, -1) rotate(45.000000) translate(-11.999023, -12.000000) " xlink:href="#path-1"></use>
            <g id="Color-/-Charcoal" mask="url(#mask-2)" fill="#404040">
                <rect id="Rectangle-6" x="0" y="0" width="24" height="24"></rect>
            </g>
        </g>
    </g>
</svg>