<?xml version="1.0" encoding="UTF-8"?>
<svg width="24px" height="24px" viewBox="0 0 24 24" version="1.1" xmlns="http://www.w3.org/2000/svg" xmlns:xlink="http://www.w3.org/1999/xlink">
    <!-- Generator: sketchtool 52.5 (67469) - http://www.bohemiancoding.com/sketch -->
    <title>Icon/Market Map</title>
    <desc>Created with sketchtool.</desc>
    <defs>
        <path d="M19,20 L21,20 L21,22 L19,22 L17,22 L17,17 L19,17 L19,20 Z M19,13 L21,13 L21,15 L19,15 L17,15 L17,10 L19,10 L19,13 Z M19,6 L21,6 L21,8 L19,8 L17,8 L17,3 L19,3 L19,6 Z M12,20 L15,20 L15,22 L12,22 L10,22 L10,17 L12,17 L12,20 Z M12,13 L15,13 L15,15 L12,15 L10,15 L10,10 L12,10 L12,13 Z M12,6 L15,6 L15,8 L12,8 L10,8 L10,3 L12,3 L12,6 Z M5,20 L8,20 L8,22 L5,22 L3,22 L3,17 L5,17 L5,20 Z M5,13 L8,13 L8,15 L5,15 L3,15 L3,10 L5,10 L5,13 Z M5,6 L8,6 L8,8 L5,8 L3,8 L3,3 L5,3 L5,6 Z" id="path-1"></path>
    </defs>
    <g id="Icons" stroke="none" stroke-width="1" fill="none" fill-rule="evenodd">
        <g id="Icon/Market-Map">
            <mask id="mask-2" fill="white">
                <use xlink:href="#path-1"></use>
            </mask>
            <use id="Combined-Shape" fill="#D8D8D8" fill-rule="nonzero" xlink:href="#path-1"></use>
            <g id="Color-/-Charcoal" mask="url(#mask-2)" fill="#404040">
                <rect id="Rectangle-6" x="0" y="0" width="24" height="24"></rect>
            </g>
        </g>
    </g>
</svg>