<?xml version="1.0" encoding="UTF-8"?>
<svg width="24px" height="24px" viewBox="0 0 24 24" version="1.1" xmlns="http://www.w3.org/2000/svg" xmlns:xlink="http://www.w3.org/1999/xlink">
    <!-- Generator: sketchtool 53.2 (72643) - https://sketchapp.com -->
    <title>icon/order_alphabetical_za</title>
    <desc>Created with sketchtool.</desc>
    <defs>
        <path d="M10,14 L10,5 L8,5 L8,14 L6,14 L9,18 L12,14 L10,14 L10,14 Z M12,12 L16,12 L9,21 L2,12 L6,12 L6,3 L12,3 L12,12 Z M20.414258,19.1439066 L17.4357424,19.1439066 L16.7667971,20.9993753 L15.8000002,20.9993753 L18.5148439,13.8900003 L19.3351564,13.8900003 L22.054883,20.9993753 L21.0929689,20.9993753 L20.414258,19.1439066 Z M17.7189455,18.3751955 L20.1359377,18.3751955 L18.9250002,15.0500002 L17.7189455,18.3751955 Z M17.4551573,9.34277344 L21.5225401,9.34277344 L21.5225401,10.109375 L16.3467588,10.109375 L16.3467588,9.40625 L20.2432432,3.77148438 L16.4102354,3.77148438 L16.4102354,3 L21.3662901,3 L21.3662901,3.68847656 L17.4551573,9.34277344 Z" id="path-1"></path>
    </defs>
    <g id="Icons" stroke="none" stroke-width="1" fill="none" fill-rule="evenodd">
        <g id="icon/order_alphabetical_za">
            <mask id="mask-2" fill="white">
                <use xlink:href="#path-1"></use>
            </mask>
            <use id="za" fill="#404040" xlink:href="#path-1"></use>
        </g>
    </g>
</svg>