<?xml version="1.0" encoding="UTF-8"?>
<svg width="24px" height="24px" viewBox="0 0 24 24" version="1.1" xmlns="http://www.w3.org/2000/svg" xmlns:xlink="http://www.w3.org/1999/xlink">
    <!-- Generator: sketchtool 52.5 (67469) - http://www.bohemiancoding.com/sketch -->
    <title>Icon/PDF</title>
    <desc>Created with sketchtool.</desc>
    <defs>
        <path d="M15,2.00841361 L19.9970671,7 L20,7 L20,7.00292969 L20,22 L4,22 L4,2 L14.9915771,2 L15,2 L15,2.00841361 Z M15,5 L15,7 L17,7 L15,5 Z M13,4 L6,4 L6,20 L18,20 L18,9 L15,9 L13,9 L13,4 Z M16.2181443,13.4354697 C16.5532268,13.5753643 16.8195677,13.8084163 16.9470267,14.1521556 C17.0811588,14.513771 16.9526507,14.9365975 16.650992,15.1701973 C16.6202783,15.2311489 16.5791033,15.2861322 16.5259225,15.330361 C16.0631187,15.715273 15.4592476,15.6827212 14.8954732,15.5898234 C14.4472104,15.5160126 14.0165483,15.3466801 13.6052352,15.1603078 C13.3502589,15.0447765 13.1216545,14.9104466 12.938159,14.7148479 C12.7956637,14.7600282 12.6543049,14.8086972 12.5144905,14.8609414 C12.4489252,14.8854201 12.3836804,14.9106484 12.3186396,14.9364822 C12.3049146,14.9419315 12.2468966,14.9656029 12.2102383,14.9805957 C12.1786212,14.9944064 12.1469167,15.0079576 12.1153288,15.021826 C12.0681801,15.0424988 12.0212353,15.0634887 11.9744071,15.0847958 C11.8164092,15.1565307 11.6617334,15.2351566 11.5017248,15.3024801 C11.3158107,15.3807311 11.1287893,15.4561566 10.9273435,15.5386171 C10.8962801,15.5521972 10.8651002,15.5655465 10.8342116,15.5795302 C10.7807394,15.6036629 10.7277627,15.6287182 10.6705897,15.6702368 C10.426541,16.2357547 10.1511084,16.7615992 9.7527335,17.2396685 C9.40241071,17.6601019 8.92328849,17.9311837 8.37580349,17.9918758 C7.72795985,18.0636684 6.99383224,17.6550562 7.00003909,16.948058 C7.00461409,16.4252986 7.34849691,15.9052205 7.7387417,15.5763875 C8.10290606,15.2695536 8.51896901,15.0614128 8.95012656,14.8640842 C9.17465135,14.7613545 9.40870498,14.7585289 9.60120476,14.8640842 C9.63617293,14.779836 9.6712868,14.6956167 9.70558475,14.6110802 C10.0854265,13.6749225 10.4219077,12.7224744 10.7939982,11.7834911 C10.7592049,11.6974265 10.7250526,11.6111312 10.6919494,11.5244612 C10.5628877,11.1865171 10.4489498,10.8412785 10.3810241,10.4857756 C10.295964,10.040604 10.2742255,9.61111721 10.3393537,9.16300473 C10.3526416,9.0715485 10.36998,8.98228352 10.3952736,8.89535397 C10.4361573,8.59405585 10.5852382,8.31490098 10.8659161,8.15263248 C11.1799303,7.97107513 11.6089314,7.96268492 11.9512115,8.06861499 C12.4165505,8.21260378 12.6486517,8.63122076 12.6589965,9.09377824 C12.6616482,9.21262522 12.6460291,9.33937225 12.6119934,9.46208276 C12.6439019,9.5200358 12.6682922,9.58133338 12.6831536,9.64427442 C12.7505839,9.93026256 12.6349267,10.2460634 12.5594246,10.522681 C12.5009112,10.7370495 12.4370069,10.9499477 12.3676242,11.1611158 C12.3606597,11.1823941 12.3535495,11.2036436 12.3464102,11.2249218 C12.4687113,11.4622121 12.5911291,11.6994736 12.7164317,11.9351781 C12.8535652,12.19317 12.9976341,12.448221 13.183519,12.7103937 C13.2147281,12.7460593 13.2472485,12.7806869 13.2800312,12.8149686 C13.3533769,12.8915473 13.4292287,12.9657618 13.5058381,13.0390825 C13.5647304,13.0954209 13.6267697,13.1500294 13.687119,13.2062813 C13.9362963,13.1703562 14.1877757,13.1504331 14.4410036,13.1500294 C15.0323445,13.1491356 15.6696685,13.2064543 16.2181443,13.4354697 Z M15.5,14.6576372 C15.4465638,14.5612316 15.0608475,14.4957173 14.5,14.5002183 C14.7894382,14.5930462 15.2554017,14.6940683 15.5,14.6576372 Z M11,13.6999998 C11.2204256,13.6001577 11.7259084,13.4559439 12,13.4107004 C11.7288124,13.216648 11.5486247,12.9120082 11.4507248,12.6999998 C11.3683905,12.9892757 11.1295651,13.4752667 11,13.6999998 Z M11.5632147,9 C11.4548365,9.34247698 11.5124524,9.73354867 11.5416031,10 C11.5624837,9.86086873 11.6312938,9.39569975 11.6378276,9.36532806 C11.6454123,9.32960517 11.6670239,9.29952273 11.6670239,9.29952273 C11.6670239,9.29952273 11.6540021,9.29344839 11.6522202,9.24779444 C11.6514891,9.22846261 11.6464174,9.10075688 11.5632147,9 Z M8,17 C8.3474764,16.8349689 8.72789443,16.3905291 9,16 C8.45680023,16.3490625 8.03766134,16.8705057 8,17 Z" id="path-1"></path>
    </defs>
    <g id="Icons" stroke="none" stroke-width="1" fill="none" fill-rule="evenodd">
        <g id="Icon/PDF">
            <mask id="mask-2" fill="white">
                <use xlink:href="#path-1"></use>
            </mask>
            <use id="Icon-13pt/Document/G" fill="#757575" xlink:href="#path-1"></use>
            <g id="Color-/-Charcoal" mask="url(#mask-2)" fill="#404040">
                <rect id="Rectangle-6" x="0" y="0" width="24" height="24"></rect>
            </g>
        </g>
    </g>
</svg>