<?xml version="1.0" encoding="UTF-8"?>
<svg width="24px" height="24px" viewBox="0 0 24 24" version="1.1" xmlns="http://www.w3.org/2000/svg" xmlns:xlink="http://www.w3.org/1999/xlink">
    <!-- Generator: sketchtool 52.5 (67469) - http://www.bohemiancoding.com/sketch -->
    <title>icon/question</title>
    <desc>Created with sketchtool.</desc>
    <g id="Icons" stroke="none" stroke-width="1" fill="none" fill-rule="evenodd">
        <g id="icon/question" fill="#404040">
            <path d="M7.99698151,16.7216992 C9.30674461,17.5224607 10.957964,18 12.7524375,18 C17.0085106,18 20.4587396,15.3137085 20.4587396,12 C20.4587396,8.6862915 17.0085106,6 12.7524375,6 C8.49636442,6 5.04613546,8.6862915 5.04613546,12 C5.04613546,12.6098217 5.16298447,13.1983946 5.38020124,13.7528868 L4.29708058,17.4078803 L7.99698151,16.7216992 Z M7.25516599,18.43366 L2,19.3983925 L3.69742883,13.631922 C3.57120451,13.1050611 3.50487505,12.5592316 3.50487505,12 C3.50487505,7.581722 7.6451498,4 12.7524375,4 C17.8597253,4 22,7.581722 22,12 C22,16.418278 17.8597253,20 12.7524375,20 C10.6935717,20 8.79185356,19.4179406 7.25516599,18.43366 Z M8.5,13.5 C7.67157288,13.5 7,12.8284271 7,12 C7,11.1715729 7.67157288,10.5 8.5,10.5 C9.32842712,10.5 10,11.1715729 10,12 C10,12.8284271 9.32842712,13.5 8.5,13.5 Z M12.5,13.5 C11.6715729,13.5 11,12.8284271 11,12 C11,11.1715729 11.6715729,10.5 12.5,10.5 C13.3284271,10.5 14,11.1715729 14,12 C14,12.8284271 13.3284271,13.5 12.5,13.5 Z M16.5,13.5 C15.6715729,13.5 15,12.8284271 15,12 C15,11.1715729 15.6715729,10.5 16.5,10.5 C17.3284271,10.5 18,11.1715729 18,12 C18,12.8284271 17.3284271,13.5 16.5,13.5 Z" id="question"></path>
        </g>
    </g>
</svg>