<?xml version="1.0" encoding="UTF-8"?>
<svg width="24px" height="24px" viewBox="0 0 24 24" version="1.1" xmlns="http://www.w3.org/2000/svg" xmlns:xlink="http://www.w3.org/1999/xlink">
    <!-- Generator: sketchtool 53.2 (72643) - https://sketchapp.com -->
    <title>icon/redo</title>
    <desc>Created with sketchtool.</desc>
    <g id="Icons" stroke="none" stroke-width="1" fill="none" fill-rule="evenodd">
        <g id="icon/redo" fill="#404040" fill-rule="nonzero">
            <path d="M17.4506174,10.5777049 L21.157051,6.73958059 L22,18.7557732 L9.96170879,18.3326968 L13.7616799,14.3977115 C7.62772432,8.10662072 5.07452547,9.04052576 2,11.3935034 C2.36708249,9.42537675 3.48834373,7.09329955 7.03750076,6.22328842 C9.63425711,5.58674095 12.7815536,6.09932083 17.4506174,10.5777049 L17.4506174,10.5777049 Z M19.6654172,10.857445 L17.4798126,13.1144026 C15.178596,10.857445 12.9955156,8.90213874 10.6969074,7.91851148 C8.39829926,6.93488422 6.80076742,7.1717457 4.99178517,8.66191155 C8.25256424,7.94425912 10.3122944,9.30329165 11.7355527,10.3935743 C12.6843917,11.1204294 14.1878249,12.4639343 16.2458525,14.424089 L14.0519294,16.6677352 L20.0946254,16.8844096 L19.6654172,10.857445 Z" id="redo"></path>
        </g>
    </g>
</svg>