<?xml version="1.0" encoding="UTF-8"?>
<svg width="24px" height="24px" viewBox="0 0 24 24" version="1.1" xmlns="http://www.w3.org/2000/svg" xmlns:xlink="http://www.w3.org/1999/xlink">
    <!-- Generator: sketchtool 52.5 (67469) - http://www.bohemiancoding.com/sketch -->
    <title>icon/research</title>
    <desc>Created with sketchtool.</desc>
    <g id="Icons" stroke="none" stroke-width="1" fill="none" fill-rule="evenodd">
        <g id="icon/research" fill="#404040">
            <path d="M19,6 L19,5 L5,5 L5,6 L19,6 Z M19,8 L5,8 L5,19 L19,19 L19,8 Z M3,3.99339768 C3,3.44475929 3.44494629,3 3.99339768,3 L20.0066023,3 C20.5552407,3 21,3.44494629 21,3.99339768 L21,20.0066023 C21,20.5552407 20.5550537,21 20.0066023,21 L3.99339768,21 C3.44475929,21 3,20.5550537 3,20.0066023 L3,3.99339768 Z M6.5,10 L9.5,10 L9.5,13 L6.5,13 L6.5,10 Z M10.5,10 L17.5,10 L17.5,11.5 L10.5,11.5 L10.5,10 Z M10.5,13 L17.5,13 L17.5,14.5 L10.5,14.5 L10.5,13 Z M10.5,16 L13.5,16 L13.5,17.5 L10.5,17.5 L10.5,16 Z" id="research"></path>
        </g>
    </g>
</svg>