<?xml version="1.0" encoding="UTF-8"?>
<svg width="24px" height="24px" viewBox="0 0 24 24" version="1.1" xmlns="http://www.w3.org/2000/svg" xmlns:xlink="http://www.w3.org/1999/xlink">
    <!-- Generator: sketchtool 53.2 (72643) - https://sketchapp.com -->
    <title>icon/reset</title>
    <desc>Created with sketchtool.</desc>
    <g id="Icons" stroke="none" stroke-width="1" fill="none" fill-rule="evenodd">
        <g id="icon/reset" fill="#404040">
            <path d="M5,12 C5,7.30557963 8.581722,3.5 13,3.5 C17.418278,3.5 21,7.30557963 21,12 C21,16.6944204 17.418278,20.5 13,20.5 C11.6625252,20.5 10.4017088,20.1512727 9.29370035,19.5347268 L10.78549,18.0429372 C11.4706556,18.3378689 12.2178504,18.5 13,18.5 C16.3137085,18.5 19,15.5898509 19,12 C19,8.41014913 16.3137085,5.5 13,5.5 C9.6862915,5.5 7,8.41014913 7,12 L11.1715729,12 L6.22182541,16.9497475 L1.27207794,12 L5,12 L5,12 Z" id="reset"></path>
        </g>
    </g>
</svg>