<?xml version="1.0" encoding="UTF-8"?>
<svg width="24px" height="24px" viewBox="0 0 24 24" version="1.1" xmlns="http://www.w3.org/2000/svg" xmlns:xlink="http://www.w3.org/1999/xlink">
    <!-- Generator: sketchtool 55.1 (78136) - https://sketchapp.com -->
    <title>icon/salesforce</title>
    <desc>Created with sketchtool.</desc>
    <g id="Icons" stroke="none" stroke-width="1" fill="none" fill-rule="evenodd">
        <g id="icon/salesforce" fill="#404040" fill-rule="nonzero">
            <path d="M10.4024243,5.16487903 C11.1247058,4.69415333 11.9708386,4.43366407 12.8563028,4.43366407 C14.2242641,4.43366407 15.4798766,5.0498495 16.3314998,6.07222171 C16.7709008,5.95617326 17.2247363,5.89636163 17.6854098,5.89636163 C20.6216209,5.89636163 23,8.29432744 23,11.2477031 C23,14.2010787 20.6216209,16.5990445 17.6854098,16.5990445 C17.5585448,16.5990445 17.4332733,16.5945821 17.3090136,16.5856115 C16.5346361,17.5432328 15.3561681,18.1278942 14.0837927,18.1278942 C13.7739711,18.1278942 13.4668833,18.0927309 13.1672796,18.0248913 C12.323286,19.2397073 10.9293273,20.0022051 9.39434032,20.0022051 C7.72723687,20.0022051 6.2333306,19.1093883 5.42483323,17.722642 C5.39557263,17.7232998 5.36630377,17.723631 5.33700843,17.723631 C2.93900408,17.723631 1,15.7610165 1,13.3498714 C1,12.0586275 1.55812895,10.866601 2.49045241,10.0477988 C2.39899316,9.6711332 2.35244395,9.27998942 2.35244395,8.88092612 C2.35244395,6.1831865 4.5413456,4 7.24072033,4 C8.41992951,4 9.53278889,4.42434476 10.4024243,5.16487903 Z M11.0393272,7.21665766 L10.2344102,8.04901492 L9.52808025,7.13151407 C8.98220758,6.42244233 8.144657,6 7.24072033,6 C5.64474629,6 4.35244395,7.28892819 4.35244395,8.88092612 C4.35244395,9.28898168 4.43211711,9.6749844 4.58466159,10.0236575 L4.94029902,10.8365431 L4.17552435,11.2864105 C3.45194538,11.7120452 3,12.4880269 3,13.3498714 C3,14.6618292 4.04902827,15.723631 5.33700843,15.723631 C5.48492947,15.723631 5.6436488,15.7057111 5.82446439,15.669548 L6.66279867,15.501881 L6.95875234,16.3039583 C7.33299486,17.3182098 8.296326,18.0022051 9.39434032,18.0022051 C10.4413926,18.0022051 11.3738816,17.3720641 11.7828028,16.4179146 L12.191771,15.4636556 L13.1300341,15.9080961 C13.4333781,16.0517853 13.7584533,16.1278942 14.0837927,16.1278942 C14.8665935,16.1278942 15.5840156,15.6974409 15.9592546,15.0240668 L16.3178727,14.3805193 L17.0387925,14.5322918 C17.2520761,14.5771936 17.4623906,14.5990445 17.6854098,14.5990445 C19.5133628,14.5990445 21,13.1001644 21,11.2477031 C21,9.39524171 19.5133628,7.89636163 17.6854098,7.89636163 C17.2222185,7.89636163 16.7700951,7.99334709 16.3448801,8.17974274 L15.5164858,8.54287454 L15.0722965,7.75496734 C14.6119649,6.93842687 13.7788894,6.43366407 12.8563028,6.43366407 C12.1685612,6.43366407 11.5220734,6.71745423 11.0393272,7.21665766 Z" id="salesforce"></path>
        </g>
    </g>
</svg>