<?xml version="1.0" encoding="UTF-8"?>
<svg width="24px" height="24px" viewBox="0 0 24 24" version="1.1" xmlns="http://www.w3.org/2000/svg" xmlns:xlink="http://www.w3.org/1999/xlink">
    <!-- Generator: sketchtool 52.5 (67469) - http://www.bohemiancoding.com/sketch -->
    <title>Icon/Save</title>
    <desc>Created with sketchtool.</desc>
    <defs>
        <path d="M7,5 L5,5 L5,19 L19,19 L19,8.11111111 L17,6.11111111 L17,11 L7,11 L7,5 Z M13.0021973,5 L13.0021973,9.4 L15,9.4 L15,5 L13.0021973,5 Z M4.63636364,3 L16.9090909,3 L21,7.09090909 L21,19.3636364 C21,20.1818182 20.1818182,21 19.3636364,21 L4.63636364,21 C3.81818182,21 3,20.1818182 3,19.3636364 L3,4.63636364 C3,3.81818182 3.81818182,3 4.63636364,3 Z" id="path-1"></path>
    </defs>
    <g id="Icons" stroke="none" stroke-width="1" fill="none" fill-rule="evenodd">
        <g id="Icon/Save">
            <mask id="mask-2" fill="white">
                <use xlink:href="#path-1"></use>
            </mask>
            <use id="Combined-Shape" fill="#757575" xlink:href="#path-1"></use>
            <g id="Color-/-Charcoal" mask="url(#mask-2)" fill="#404040">
                <rect id="Rectangle-6" x="0" y="0" width="24" height="24"></rect>
            </g>
        </g>
    </g>
</svg>