<?xml version="1.0" encoding="UTF-8"?>
<svg width="24px" height="24px" viewBox="0 0 24 24" version="1.1" xmlns="http://www.w3.org/2000/svg" xmlns:xlink="http://www.w3.org/1999/xlink">
    <!-- Generator: sketchtool 55.2 (78181) - https://sketchapp.com -->
    <title>icon/share</title>
    <desc>Created with sketchtool.</desc>
    <g id="Icons" stroke="none" stroke-width="1" fill="none" fill-rule="evenodd">
        <g id="icon/share" fill="#404040">
            <path d="M9.75927433,11.221839 C9.91467107,11.617789 10,12.0489297 10,12.5 C10,12.6859688 9.98549599,12.86855 9.95755746,13.0466742 L14.9080183,15.1480201 C15.5483122,14.4428113 16.472444,14 17.5,14 C19.4329966,14 21,15.5670034 21,17.5 C21,19.4329966 19.4329966,21 17.5,21 C15.5670034,21 14,19.4329966 14,17.5 C14,17.3140312 14.014504,17.13145 14.0424425,16.9533258 L9.09198172,14.8519799 C8.45168784,15.5571887 7.52755598,16 6.5,16 C4.56700338,16 3,14.4329966 3,12.5 C3,10.5670034 4.56700338,9 6.5,9 C7.23752205,9 7.92176451,9.22811706 8.48601929,9.61764309 L14.0245056,6.91634284 C14.0083235,6.77981592 14,6.64087999 14,6.5 C14,4.56700338 15.5670034,3 17.5,3 C19.4329966,3 21,4.56700338 21,6.5 C21,8.43299662 19.4329966,10 17.5,10 C16.4251181,10 15.4634065,9.51546044 14.8213725,8.75288873 L9.75927433,11.221839 L9.75927433,11.221839 Z M17.5,8 C18.3284271,8 19,7.32842712 19,6.5 C19,5.67157288 18.3284271,5 17.5,5 C16.6715729,5 16,5.67157288 16,6.5 C16,7.32842712 16.6715729,8 17.5,8 Z M17.5,19 C18.3284271,19 19,18.3284271 19,17.5 C19,16.6715729 18.3284271,16 17.5,16 C16.6715729,16 16,16.6715729 16,17.5 C16,18.3284271 16.6715729,19 17.5,19 Z M6.5,14 C7.32842712,14 8,13.3284271 8,12.5 C8,11.6715729 7.32842712,11 6.5,11 C5.67157288,11 5,11.6715729 5,12.5 C5,13.3284271 5.67157288,14 6.5,14 Z" id="share"></path>
        </g>
    </g>
</svg>