<?xml version="1.0" encoding="UTF-8"?>
<svg width="24px" height="24px" viewBox="0 0 24 24" version="1.1" xmlns="http://www.w3.org/2000/svg" xmlns:xlink="http://www.w3.org/1999/xlink">
    <!-- Generator: sketchtool 52.5 (67469) - http://www.bohemiancoding.com/sketch -->
    <title>icon/social_graph</title>
    <desc>Created with sketchtool.</desc>
    <g id="Icons" stroke="none" stroke-width="1" fill="none" fill-rule="evenodd">
        <g id="icon/social_graph" fill="#404040">
            <path d="M10.2044813,10.6055861 C10.7040983,11.2731549 11,12.1020217 11,13 C11,13.1706727 10.9893108,13.3388488 10.9685654,13.5038954 L14.889723,15.1683281 C15.5306429,14.4513229 16.4626154,14 17.5,14 C19.4329966,14 21,15.5670034 21,17.5 C21,19.4329966 19.4329966,21 17.5,21 C15.5670034,21 14,19.4329966 14,17.5 C14,17.3231944 14.0131099,17.1494508 14.0384107,16.9796882 L10.2282235,15.3623597 C9.50037756,16.3552951 8.32547823,17 7,17 C4.790861,17 3,15.209139 3,13 C3,10.790861 4.790861,9 7,9 C7.58631495,9 8.14316663,9.12614723 8.6448947,9.35278136 L10.322158,7.35389685 C10.1161073,6.9471589 10,6.48713861 10,6 C10,4.34314575 11.3431458,3 13,3 C14.6568542,3 16,4.34314575 16,6 C16,7.65685425 14.6568542,9 13,9 C12.5623582,9 12.1466038,8.90628865 11.7717084,8.73783752 L10.2044813,10.6055861 Z M13,7 C13.5522847,7 14,6.55228475 14,6 C14,5.44771525 13.5522847,5 13,5 C12.4477153,5 12,5.44771525 12,6 C12,6.55228475 12.4477153,7 13,7 Z M17.5,19 C18.3284271,19 19,18.3284271 19,17.5 C19,16.6715729 18.3284271,16 17.5,16 C16.6715729,16 16,16.6715729 16,17.5 C16,18.3284271 16.6715729,19 17.5,19 Z M7,15 C8.1045695,15 9,14.1045695 9,13 C9,11.8954305 8.1045695,11 7,11 C5.8954305,11 5,11.8954305 5,13 C5,14.1045695 5.8954305,15 7,15 Z" id="social-graph"></path>
        </g>
    </g>
</svg>