<?xml version="1.0" encoding="UTF-8"?>
<svg width="24px" height="24px" viewBox="0 0 24 24" version="1.1" xmlns="http://www.w3.org/2000/svg" xmlns:xlink="http://www.w3.org/1999/xlink">
    <!-- Generator: sketchtool 55.2 (78181) - https://sketchapp.com -->
    <title>icon/sort_up</title>
    <desc>Created with sketchtool.</desc>
    <g id="Icons" stroke="none" stroke-width="1" fill="none" fill-rule="evenodd">
        <g id="icon/sort_up" fill="#404040">
            <g id="Group" transform="translate(1.000000, 5.000000)">
                <path d="M6,6.16666667 L7.5,6.16666667 L5,3.66666667 L2.5,6.16666667 L4,6.16666667 L4,11.1666667 L6,11.1666667 L6,6.16666667 Z M7,7 L7,12 L3,12 L3,7 L0,7 L5,2 L10,7 L7,7 Z" id="arrow-up"></path>
                <path d="M12,12 L16,12 L16,14 L12,14 L12,12 Z M12,8 L18,8 L18,10 L12,10 L12,8 Z M12,4 L20,4 L20,6 L12,6 L12,4 Z M12,0 L22,0 L22,2 L12,2 L12,0 Z" id="filter"></path>
            </g>
        </g>
    </g>
</svg>