<?xml version="1.0" encoding="UTF-8"?>
<svg width="24px" height="24px" viewBox="0 0 24 24" version="1.1" xmlns="http://www.w3.org/2000/svg" xmlns:xlink="http://www.w3.org/1999/xlink">
    <!-- Generator: sketchtool 55.2 (78181) - https://sketchapp.com -->
    <title>icon/story_dossier</title>
    <desc>Created with sketchtool.</desc>
    <g id="Icons" stroke="none" stroke-width="1" fill="none" fill-rule="evenodd">
        <g id="icon/story_dossier" fill="#404040">
            <path d="M13,17.2080218 C13.8829524,17.5938002 14.5,18.4748405 14.5,19.5 C14.5,20.8807119 13.3807119,22 12,22 C10.6192881,22 9.5,20.8807119 9.5,19.5 C9.5,18.4748405 10.1170476,17.5938002 11,17.2080218 L11,15 L5,15 L5,4 L4,4 L4,2 L20,2 L20,4 L19,4 L19,15 L13,15 L13,17.2080218 L13,17.2080218 Z M7,4 L7,13 L17,13 L17,4 L7,4 Z M12,20.5 C12.5522847,20.5 13,20.0522847 13,19.5 C13,18.9477153 12.5522847,18.5 12,18.5 C11.4477153,18.5 11,18.9477153 11,19.5 C11,20.0522847 11.4477153,20.5 12,20.5 Z" id="story-expert"></path>
            <polygon id="work-faster" points="12.4229701 8.09090909 14.0136108 8.09090909 11.6092672 13 11.6092672 8.90909091 10.0136108 8.90909091 12.4229701 4"></polygon>
        </g>
    </g>
</svg>