<?xml version="1.0" encoding="UTF-8"?>
<svg width="24px" height="24px" viewBox="0 0 24 24" version="1.1" xmlns="http://www.w3.org/2000/svg" xmlns:xlink="http://www.w3.org/1999/xlink">
    <!-- Generator: sketchtool 52.5 (67469) - http://www.bohemiancoding.com/sketch -->
    <title>icon/story_expert</title>
    <desc>Created with sketchtool.</desc>
    <g id="Icons" stroke="none" stroke-width="1" fill="none" fill-rule="evenodd">
        <g id="icon/story_expert" fill="#404040">
            <path d="M13,17.2080218 C13.8829524,17.5938002 14.5,18.4748405 14.5,19.5 C14.5,20.8807119 13.3807119,22 12,22 C10.6192881,22 9.5,20.8807119 9.5,19.5 C9.5,18.4748405 10.1170476,17.5938002 11,17.2080218 L11,15 L5,15 L5,4 L4,4 L4,2 L20,2 L20,4 L19,4 L19,15 L13,15 L13,17.2080218 Z M7,4 L7,13 L17,13 L17,4 L7,4 Z M12,20.5 C12.5522847,20.5 13,20.0522847 13,19.5 C13,18.9477153 12.5522847,18.5 12,18.5 C11.4477153,18.5 11,18.9477153 11,19.5 C11,20.0522847 11.4477153,20.5 12,20.5 Z M12,10.5897082 L9.7958053,11.7206503 L10.216769,9.3252765 L8.43353806,7.62886338 L10.8979027,7.27938305 L12,5.1 L13.1020973,7.27938305 L15.5664619,7.62886338 L13.783231,9.3252765 L14.2041947,11.7206503 L12,10.5897082 Z" id="story-expert"></path>
        </g>
    </g>
</svg>