<?xml version="1.0" encoding="UTF-8"?>
<svg width="24px" height="24px" viewBox="0 0 24 24" version="1.1" xmlns="http://www.w3.org/2000/svg" xmlns:xlink="http://www.w3.org/1999/xlink">
    <!-- Generator: sketchtool 52.5 (67469) - http://www.bohemiancoding.com/sketch -->
    <title>Icon/Suggestion</title>
    <desc>Created with sketchtool.</desc>
    <g id="Icons" stroke="none" stroke-width="1" fill="none" fill-rule="evenodd">
        <g id="Icon/Suggestion" fill="#404040">
            <path d="M17.2,10 L17.5,12 L6.5,12 L6.8,10 L10.539917,10 L11.5106201,11 L15.5041504,11 L16.5859375,10 L17.2,10 Z M2,15 L22,15 L22,19.0001925 C22,19.5523709 21.5446944,20 21.0081969,20 L2.99180311,20 C2.44404538,20 2,19.5562834 2,19.0001925 L2,15 Z M4,16 L4,18 L20,18 L20,16 L4,16 Z M20.6750229,10.2300826 L22,15 L2,15 L4.22222222,7 L8.3,7 L6.7,8.5 L5.6,8.5 L4.3,14 L19.7,14 L19.1572221,11.7036321 L20.6750229,10.2300826 Z" id="Icon-13pt/Investor/G"></path>
            <path d="M10.2928932,3.70710678 L18.2928932,3.70710678 L18.2928932,7.97192656 L16.785715,9.47918359 L14.0844174,12.1806225 L12.5580129,13.7071068 L10.2928932,13.7071068 L10.2928932,3.70710678 Z M11.7928932,5.20710678 L11.7928932,12.2071068 L14.056558,12.2071068 L16.7928932,9.46313466 L16.7928932,5.20710678 L11.7928932,5.20710678 Z" id="Combined-Shape" transform="translate(14.292893, 8.707107) rotate(45.000000) translate(-14.292893, -8.707107) "></path>
        </g>
    </g>
</svg>