<?xml version="1.0" encoding="UTF-8"?>
<svg width="24px" height="24px" viewBox="0 0 24 24" version="1.1" xmlns="http://www.w3.org/2000/svg" xmlns:xlink="http://www.w3.org/1999/xlink">
    <!-- Generator: sketchtool 52.5 (67469) - http://www.bohemiancoding.com/sketch -->
    <title>Icon/table</title>
    <desc>Created with sketchtool.</desc>
    <defs>
        <path d="M3,3 L6,3 L6,6 L3,6 L3,3 Z M3,8 L6,8 L6,11 L3,11 L3,8 Z M3,13 L6,13 L6,16 L3,16 L3,13 Z M3,18 L6,18 L6,21 L3,21 L3,18 Z M8,3 L21,3 L21,6 L8,6 L8,3 Z M8,8 L21,8 L21,11 L8,11 L8,8 Z M8,13 L21,13 L21,16 L8,16 L8,13 Z M8,18 L21,18 L21,21 L8,21 L8,18 Z" id="path-1"></path>
    </defs>
    <g id="Icons" stroke="none" stroke-width="1" fill="none" fill-rule="evenodd">
        <g id="Icon/table">
            <mask id="mask-2" fill="white">
                <use xlink:href="#path-1"></use>
            </mask>
            <use id="Combined-Shape" fill="#404040" fill-rule="nonzero" xlink:href="#path-1"></use>
            <g id="Color-/-Charcoal" mask="url(#mask-2)" fill="#404040">
                <rect id="Rectangle-6" x="0" y="0" width="24" height="24"></rect>
            </g>
        </g>
    </g>
</svg>