<?xml version="1.0" encoding="UTF-8"?>
<svg width="24px" height="24px" viewBox="0 0 24 24" version="1.1" xmlns="http://www.w3.org/2000/svg" xmlns:xlink="http://www.w3.org/1999/xlink">
    <!-- Generator: sketchtool 52.5 (67469) - http://www.bohemiancoding.com/sketch -->
    <title>icon/twitter</title>
    <desc>Created with sketchtool.</desc>
    <g id="Icons" stroke="none" stroke-width="1" fill="none" fill-rule="evenodd">
        <g id="icon/twitter" fill="#404040">
            <path d="M12,21 C7.02943725,21 3,16.9705627 3,12 C3,7.02943725 7.02943725,3 12,3 C16.9705627,3 21,7.02943725 21,12 C21,16.9705627 16.9705627,21 12,21 Z M12,19 C15.8659932,19 19,15.8659932 19,12 C19,8.13400675 15.8659932,5 12,5 C8.13400675,5 5,8.13400675 5,12 C5,15.8659932 8.13400675,19 12,19 Z M16,9.771875 C15.7732645,10.1036475 15.4991556,10.386327 15.177665,10.6199219 C15.1810491,10.6673179 15.1827411,10.738411 15.1827411,10.8332031 C15.1827411,11.2733095 15.118444,11.7125629 14.9898477,12.1509766 C14.8612515,12.5893902 14.665822,13.010024 14.4035533,13.4128906 C14.1412846,13.8157572 13.829105,14.1720688 13.4670051,14.4818359 C13.1049051,14.7916031 12.6683613,15.0387361 12.1573604,15.2232422 C11.6463595,15.4077483 11.0998337,15.5 10.5177665,15.5 C9.60067223,15.5 8.76142513,15.2545597 8,14.7636719 C8.11844391,14.7772136 8.25042228,14.7839844 8.39593909,14.7839844 C9.15736421,14.7839844 9.83586843,14.550393 10.4314721,14.0832031 C10.0761404,14.0764323 9.75803863,13.9672537 9.47715736,13.7556641 C9.19627609,13.5440745 9.00338462,13.2740902 8.89847716,12.9457031 C9.01015284,12.9626303 9.1133667,12.9710937 9.20812183,12.9710937 C9.35363863,12.9710937 9.49746122,12.9524741 9.63959391,12.9152344 C9.2605734,12.8373694 8.94670175,12.6486343 8.69796954,12.3490234 C8.44923734,12.0494126 8.3248731,11.7015645 8.3248731,11.3054687 L8.3248731,11.2851562 C8.55499269,11.4138027 8.80202914,11.4832031 9.06598985,11.4933594 C8.84263848,11.3444003 8.66497528,11.1497408 8.53299492,10.909375 C8.40101457,10.6690092 8.33502538,10.4083347 8.33502538,10.1273437 C8.33502538,9.82942559 8.40947472,9.55351689 8.55837563,9.29960937 C8.96785315,9.80403898 9.46615612,10.2077459 10.0532995,10.5107422 C10.6404429,10.8137385 11.2690322,10.9821613 11.9390863,11.0160156 C11.9120134,10.8873691 11.8984772,10.76211 11.8984772,10.6402344 C11.8984772,10.1865863 12.058374,9.79980629 12.3781726,9.47988281 C12.6979711,9.15995934 13.0846001,9 13.5380711,9 C14.0118467,9 14.4111659,9.17265452 14.7360406,9.51796875 C15.1049088,9.44687464 15.451775,9.31484471 15.7766497,9.121875 C15.6514376,9.51119986 15.4111693,9.81249893 15.0558376,10.0257812 C15.3705599,9.99192691 15.6852776,9.90729234 16,9.771875 Z" id="twitter"></path>
        </g>
    </g>
</svg>