<?xml version="1.0" encoding="UTF-8"?>
<svg width="24px" height="24px" viewBox="0 0 24 24" version="1.1" xmlns="http://www.w3.org/2000/svg" xmlns:xlink="http://www.w3.org/1999/xlink">
    <!-- Generator: sketchtool 52.5 (67469) - http://www.bohemiancoding.com/sketch -->
    <title>Icon/update</title>
    <desc>Created with sketchtool.</desc>
    <defs>
        <path d="M20.7769836,10 L18.7101213,10 L14,10 L16.9497475,7.05025253 C15.6829966,5.78350169 13.9329966,5 12,5 C8.47352809,5 5.55611852,7.60770586 5.07088886,11 L3.05492878,11 C3.55237307,6.50004954 7.36744635,3 12,3 C14.4852814,3 16.7352814,4.00735931 18.363961,5.63603897 L21,3 L21,10 L20.7769836,10 Z M20.9450712,13 C20.4476269,17.4999505 16.6325537,21 12,21 C9.51471863,21 7.26471863,19.9926407 5.63603897,18.363961 L3,21 L3,14 L3.22301642,14 L6,14 L10,14 L7.05025253,16.9497475 C8.31700338,18.2164983 10.0670034,19 12,19 C15.5264719,19 18.4438815,16.3922941 18.9291111,13 L20.9450712,13 Z" id="path-1"></path>
    </defs>
    <g id="Icons" stroke="none" stroke-width="1" fill="none" fill-rule="evenodd">
        <g id="Icon/update">
            <mask id="mask-2" fill="white">
                <use xlink:href="#path-1"></use>
            </mask>
            <use id="Combined-Shape" fill="#404040" xlink:href="#path-1"></use>
            <g id="Color-/-Charcoal" mask="url(#mask-2)" fill="#404040">
                <rect id="Rectangle-6" x="0" y="0" width="24" height="24"></rect>
            </g>
        </g>
    </g>
</svg>