<?xml version="1.0" encoding="UTF-8"?>
<svg width="24px" height="24px" viewBox="0 0 24 24" version="1.1" xmlns="http://www.w3.org/2000/svg" xmlns:xlink="http://www.w3.org/1999/xlink">
    <!-- Generator: sketchtool 53.2 (72643) - https://sketchapp.com -->
    <title>icon/world</title>
    <desc>Created with sketchtool.</desc>
    <defs>
        <path d="M12,2 C17.5,2 22,6.5 22,12 C22,17.5 17.5,22 12,22 C6.5,22 2,17.5 2,12 C2,6.5 6.5,2 12,2 Z M14.775753,15.0528446 C14.922291,14.0729113 15,13.0504864 15,12 C15,11.3060369 14.9660872,10.62432 14.9008218,9.95900955 C14.1097689,9.98613703 13.3089663,10 12.5,10 C11.3497347,10 10.2159748,9.97197205 9.10327935,9.91763656 C9.035334,10.5960487 9,11.2916446 9,12 C9,13.0504864 9.077709,14.0729113 9.22424703,15.0528446 C10.1371718,15.0179077 11.0632136,15 12,15 C12.9367864,15 13.8628282,15.0179077 14.775753,15.0528446 L14.775753,15.0528446 Z M16.775545,15.1577302 C17.614721,15.2137891 18.4407451,15.2843371 19.2516435,15.3686434 C19.7315415,14.3434324 20,13.2015449 20,12 C20,11.1754442 19.8735738,10.3789832 19.6391485,9.62904411 C18.7433295,9.72425171 17.8286675,9.80202549 16.8979274,9.86132206 C16.9651818,10.5602265 17,11.2743102 17,12 C17,13.0823459 16.9225473,14.1388743 16.775545,15.1577302 L16.775545,15.1577302 Z M13.3493168,4.11462677 C12.9103986,4.03927236 12.4595629,4 12,4 C11.5404371,4 11.0896014,4.03927236 10.6506832,4.11462677 C10.1119724,5.25576119 9.68664631,6.54470407 9.40272838,7.93591734 C10.4176217,7.97819928 11.4513925,8 12.5,8 C13.2086258,8 13.9104761,7.99004414 14.6043038,7.97053963 C14.3203982,6.56608598 13.8924937,5.26522167 13.3493168,4.11462677 L13.3493168,4.11462677 Z M15.8308772,4.98330717 C16.1566775,5.89933859 16.4209493,6.87122219 16.6152705,7.88632488 C17.3410261,7.84581307 18.056159,7.79478368 18.7591325,7.73373852 C18.032175,6.58872574 17.0227407,5.63856605 15.8308772,4.98330717 L15.8308772,4.98330717 Z M13.3493168,19.8853732 C13.7602756,19.014852 14.1052502,18.0583137 14.3717998,17.0359747 C13.5908021,17.0121751 12.7996285,17 12,17 C11.2003715,17 10.4091979,17.0121751 9.62820016,17.0359747 C9.89474981,18.0583137 10.2397244,19.014852 10.6506832,19.8853732 C11.0896014,19.9607276 11.5404371,20 12,20 C12.4595629,20 12.9103986,19.9607276 13.3493168,19.8853732 L13.3493168,19.8853732 Z M15.8308772,19.0166928 C16.6668415,18.557099 17.4130596,17.9524283 18.0350096,17.2372022 C17.4950367,17.1939597 16.9482542,17.1563756 16.3953197,17.1246605 C16.2358568,17.777436 16.0468911,18.4093408 15.8308772,19.0166928 L15.8308772,19.0166928 Z M7.224455,15.1577302 C7.07745274,14.1388743 7,13.0823459 7,12 C7,11.2498144 7.03720849,10.5120316 7.10899392,9.790599 C6.18658436,9.71793113 5.28137396,9.62702002 4.39615977,9.51892116 C4.13914556,10.3008416 4,11.1349602 4,12 C4,13.2015449 4.26845851,14.3434324 4.74835647,15.3686434 C5.55925492,15.2843371 6.38527896,15.2137891 7.224455,15.1577302 L7.224455,15.1577302 Z M8.16912283,4.98330717 C7.00813645,5.62159051 6.02024946,6.53969282 5.29793359,7.64514236 C5.98533544,7.71467888 6.68543008,7.77454709 7.39670922,7.82425449 C7.58985861,6.83159247 7.84996883,5.8806515 8.16912283,4.98330717 L8.16912283,4.98330717 Z M8.16912283,19.0166928 C7.95310894,18.4093408 7.76414317,17.777436 7.60468025,17.1246605 C7.05174582,17.1563756 6.50496326,17.1939597 5.96499039,17.2372022 C6.58694045,17.9524283 7.33315846,18.557099 8.16912283,19.0166928 L8.16912283,19.0166928 Z" id="path-1"></path>
    </defs>
    <g id="Icons" stroke="none" stroke-width="1" fill="none" fill-rule="evenodd">
        <g id="icon/world">
            <mask id="mask-2" fill="white">
                <use xlink:href="#path-1"></use>
            </mask>
            <use id="world" fill="#404040" xlink:href="#path-1"></use>
        </g>
    </g>
</svg>